<?xml version="1.0" encoding="UTF-8"?>
<svg version="1.1" xmlns="http://www.w3.org/2000/svg" width="500" height="113">
<path d="M0 0 C1.21576218 -0.00525696 1.21576218 -0.00525696 2.45608521 -0.01062012 C5.13088602 -0.01940804 7.80542117 -0.0135948 10.48022461 -0.00683594 C12.35005239 -0.00818435 14.21987983 -0.01012635 16.08970642 -0.01263428 C20.01117283 -0.01558233 23.9325481 -0.0113015 27.85400391 -0.00195312 C32.85130443 0.00938597 37.84838877 0.00291525 42.84568119 -0.00909805 C46.71072476 -0.01637255 50.57571829 -0.01400229 54.44076347 -0.00884247 C56.2813361 -0.0075185 58.12191343 -0.00910922 59.96248055 -0.01380157 C85.97278927 -0.0655204 85.97278927 -0.0655204 91.88256836 4.75878906 C95.02582086 9.50885347 96.82006836 15.59437045 96.82006836 21.25878906 C92.20006836 21.25878906 87.58006836 21.25878906 82.82006836 21.25878906 C83.15006836 18.61878906 83.48006836 15.97878906 83.82006836 13.25878906 C80.65774786 11.67762881 77.26165129 12.12941784 73.7902832 12.14526367 C72.96093765 12.14511765 72.1315921 12.14497162 71.27711487 12.14482117 C68.52838551 12.14551935 65.77972342 12.15330735 63.03100586 12.16113281 C61.12814369 12.16299733 59.22528104 12.16442107 57.32241821 12.16542053 C52.3082548 12.16924307 47.29412025 12.17907113 42.27996826 12.19012451 C37.16573477 12.20034428 32.05149662 12.20491937 26.93725586 12.20996094 C16.89818066 12.22069362 6.85912691 12.2377669 -3.17993164 12.25878906 C-0.44977917 15.09437089 1.35014511 16.76891195 5.17163086 17.82128906 C6.0137915 18.0586377 6.85595215 18.29598633 7.72363281 18.54052734 C8.62170654 18.77755371 9.51978027 19.01458008 10.44506836 19.25878906 C11.37859131 19.51515137 12.31211426 19.77151367 13.27392578 20.03564453 C20.66308049 22.03257785 28.10311517 23.73687948 35.58569336 25.34082031 C46.76353904 27.74076953 57.79488868 30.7458108 68.82006836 33.75878906 C69.88298096 34.04343018 70.94589355 34.32807129 72.04101562 34.62133789 C87.60698948 38.93231241 87.60698948 38.93231241 92.25756836 44.82128906 C92.7306543 45.40007813 93.20374023 45.97886719 93.69116211 46.57519531 C96.61966591 50.94261794 96.52016465 56.21326755 95.82006836 61.25878906 C93.38533803 64.8739947 91.9687065 66.03457551 87.68981934 66.86981201 C83.42639567 67.29835999 79.24768544 67.41391008 74.96655273 67.41992188 C74.10870682 67.42488678 73.2508609 67.42985168 72.36701965 67.43496704 C69.54927754 67.44948816 66.73159163 67.45637203 63.91381836 67.46191406 C61.94519043 67.4676716 59.9765625 67.47342926 58.00793457 67.47918701 C53.88915752 67.48966685 49.77039982 67.49552995 45.65161133 67.49902344 C40.38255487 67.50451702 35.11375564 67.52857627 29.84477997 67.55699539 C25.78179173 67.57564172 21.71886542 67.58082833 17.65583801 67.58235931 C15.71343065 67.58537932 13.7710242 67.59338578 11.82865906 67.60654449 C9.110102 67.62365485 6.39217347 67.62171317 3.67358398 67.61523438 C2.8775325 67.62444916 2.08148102 67.63366394 1.26130676 67.64315796 C-5.38595439 67.59369072 -10.06678288 66.23412377 -15.05493164 61.57128906 C-17.6923146 57.46007445 -17.86831932 55.08877996 -18.17993164 50.25878906 C-18.50993164 48.93878906 -18.83993164 47.61878906 -19.17993164 46.25878906 C-14.55993164 45.92878906 -9.93993164 45.59878906 -5.17993164 45.25878906 C-4.84993164 46.57878906 -4.51993164 47.89878906 -4.17993164 49.25878906 C-4.83993164 49.25878906 -5.49993164 49.25878906 -6.17993164 49.25878906 C-5.63284437 51.79623222 -5.63284437 51.79623222 -4.17993164 54.25878906 C0.44892792 55.42848004 5.09918072 55.39580065 9.8449707 55.37231445 C10.62613251 55.37246048 11.40729431 55.37260651 12.21212769 55.37275696 C14.77678266 55.37206405 17.34136368 55.36430091 19.90600586 55.35644531 C21.69104981 55.35457892 23.47609427 55.35315606 25.26113892 55.35215759 C29.94644601 55.34834981 34.63172182 55.33853444 39.3170166 55.32745361 C44.1031858 55.31720203 48.88936008 55.31265196 53.67553711 55.30761719 C63.05706122 55.29691056 72.43856219 55.2798551 81.82006836 55.25878906 C79.55063064 50.37190116 76.68526944 49.26938533 71.82006836 47.25878906 C59.51742026 42.97234606 46.53711009 40.63300383 33.82769775 37.868927 C23.77683395 35.67499474 13.82376542 33.33362022 3.94506836 30.44628906 C2.99035645 30.16865723 2.03564453 29.89102539 1.05200195 29.60498047 C-6.06825204 27.45623385 -11.79028877 25.59938431 -16.17993164 19.25878906 C-18.0323708 15.55391075 -17.63844784 11.30264718 -17.17993164 7.25878906 C-13.24450806 0.26248047 -7.42713788 -0.03966903 0 0 Z " fill="#6D8BDF" transform="translate(70.179931640625,16.7412109375)"/>
<path d="M0 0 C6.6 0 13.2 0 20 0 C20 1.32 20 2.64 20 4 C20.49286593 9.3077869 21.90797591 13.69754603 24.125 18.5 C24.4341333 19.18779541 24.7432666 19.87559082 25.06176758 20.58422852 C26.02985242 22.72821211 27.01212351 24.8650701 28 27 C28.31340332 27.67788574 28.62680664 28.35577148 28.94970703 29.05419922 C30.43175736 32.25116012 31.92383659 35.44331588 33.421875 38.6328125 C34.77494992 41.5198189 36.12025324 44.4089913 37.4375 47.3125 C37.74558594 47.98925781 38.05367188 48.66601562 38.37109375 49.36328125 C39 51 39 51 39 53 C39.66 53 40.32 53 41 53 C41.09796875 52.49597656 41.1959375 51.99195313 41.296875 51.47265625 C42.28807612 47.98693231 43.7786272 44.74052638 45.25 41.4375 C45.56211426 40.72875732 45.87422852 40.02001465 46.19580078 39.28979492 C48.4123756 34.27097418 50.6982043 29.2868883 53.0546875 24.33203125 C54.05908963 21.85422931 54.7122501 19.66057986 55 17 C50.42065755 10.9994823 43.21105172 7.14070115 37 3 C37 2.34 37 1.68 37 1 C44.43411812 -0.52494731 51.56151161 -0.26612568 59 1 C59 2.32 59 3.64 59 5 C60.46577317 6.98503076 60.46577317 6.98503076 62.5 8.8203125 C63.5828125 9.87025391 63.5828125 9.87025391 64.6875 10.94140625 C65.450625 11.66199219 66.21375 12.38257813 67 13.125 C68.50426013 14.56065367 70.00449156 16.00054452 71.5 17.4453125 C72.1703125 18.07969238 72.840625 18.71407227 73.53125 19.36767578 C75 21 75 21 75 23 C75.66 23 76.32 23 77 23 C83.88080124 31.3518691 87.9701347 41.0764567 92 51 C95.77600718 42.32751795 99.02160099 33.53202385 102.0769043 24.58764648 C102.82290137 22.40709678 103.57812172 20.22988139 104.33398438 18.05273438 C104.81304929 16.65904286 105.29158525 15.26516938 105.76953125 13.87109375 C105.99445755 13.22426132 106.21938385 12.57742889 106.4511261 11.91099548 C107.39484425 9.12869058 108 6.96330256 108 4 C107.01 3.505 107.01 3.505 106 3 C106 2.34 106 1.68 106 1 C109.29119935 0.8035969 112.58296934 0.61939255 115.875 0.4375 C116.81214844 0.38142578 117.74929688 0.32535156 118.71484375 0.26757812 C119.61074219 0.21923828 120.50664062 0.17089844 121.4296875 0.12109375 C122.25710449 0.0739624 123.08452148 0.02683105 123.93701172 -0.02172852 C126 0 126 0 128 1 C127.02554902 3.8421487 126.09045597 5.89282108 124.140625 8.203125 C121.65990509 11.44435758 120.07551127 14.8301343 118.5 18.5625 C118.19594238 19.26922852 117.89188477 19.97595703 117.57861328 20.70410156 C115.4347701 25.76554018 113.62407256 30.88383089 111.96484375 36.125 C110.00517854 41.96432629 107.48339144 47.60939098 105.015625 53.25 C102.87501376 58.41977808 103 60.90070853 103 67 C96.07 67 89.14 67 82 67 C82.33 65.02 82.66 63.04 83 61 C80.02629447 49.21359423 73.36563638 37.5976474 66 28 C61.62466885 33.80952521 59.09681393 40.38383441 56.3125 47.0625 C55.81427734 48.23361328 55.31605469 49.40472656 54.80273438 50.61132812 C51.73636448 57.60607541 51.73636448 57.60607541 50 65 C50.33 65.66 50.66 66.32 51 67 C44.07 67 37.14 67 30 67 C29 65 29 65 28.57055664 62.24731445 C26.77924452 52.05208876 21.48175397 42.43224515 16.97094727 33.1784668 C16.05970329 31.30675551 15.15927471 29.43010869 14.25976562 27.55273438 C8.0847112 14.28292253 8.0847112 14.28292253 -1 3 C-0.67 2.01 -0.34 1.02 0 0 Z " fill="#718FE8" transform="translate(307,17)"/>
<path d="M0 0 C0.85851562 0.24814453 1.71703125 0.49628906 2.6015625 0.75195312 C10.513321 3.14373858 15.81600162 6.56184503 20.75 13.1875 C22.20152772 17.54208317 22.38083265 21.64115437 21.75 26.1875 C19.31526967 29.80270564 17.89863814 30.96328645 13.61975098 31.79852295 C9.35632731 32.22707093 5.17761708 32.34262101 0.89648438 32.34863281 C0.03863846 32.35359772 -0.81920746 32.35856262 -1.70304871 32.36367798 C-4.52079082 32.37819909 -7.33847673 32.38508296 -10.15625 32.390625 C-12.12487793 32.39638254 -14.09350586 32.40214019 -16.06213379 32.40789795 C-20.18091084 32.41837778 -24.29966854 32.42424089 -28.41845703 32.42773438 C-33.68751349 32.43322796 -38.95631272 32.45728721 -44.22528839 32.48570633 C-48.28827663 32.50435266 -52.35120294 32.50953927 -56.41423035 32.51107025 C-58.35663771 32.51409026 -60.29904416 32.52209672 -62.2414093 32.53525543 C-64.95996636 32.55236579 -67.67789489 32.55042411 -70.39648438 32.54394531 C-71.19253586 32.5531601 -71.98858734 32.56237488 -72.8087616 32.5718689 C-79.45602275 32.52240166 -84.13685124 31.16283471 -89.125 26.5 C-91.76238296 22.38878539 -91.93838768 20.0174909 -92.25 15.1875 C-92.58 13.8675 -92.91 12.5475 -93.25 11.1875 C-88.63 10.8575 -84.01 10.5275 -79.25 10.1875 C-78.92 11.5075 -78.59 12.8275 -78.25 14.1875 C-78.91 14.1875 -79.57 14.1875 -80.25 14.1875 C-79.70291273 16.72494315 -79.70291273 16.72494315 -78.25 19.1875 C-73.62114044 20.35719097 -68.97088764 20.32451158 -64.22509766 20.30102539 C-63.44393585 20.30117142 -62.66277405 20.30131744 -61.85794067 20.3014679 C-59.2932857 20.30077498 -56.72870468 20.29301184 -54.1640625 20.28515625 C-52.37901855 20.28328986 -50.59397409 20.281867 -48.80892944 20.28086853 C-44.12362235 20.27706075 -39.43834654 20.26724538 -34.75305176 20.25616455 C-29.96688256 20.24591297 -25.18070828 20.24136289 -20.39453125 20.23632812 C-11.01300713 20.22562149 -1.63150617 20.20856604 7.75 20.1875 C5.4683823 15.29596731 2.65911905 14.15763452 -2.25 12.1875 C-5.30250902 11.15842453 -8.38247817 10.30795774 -11.5 9.5 C-12.68335938 9.18192383 -12.68335938 9.18192383 -13.890625 8.85742188 C-17.33590799 7.93499391 -20.78874024 7.04797808 -24.25 6.1875 C-24.25 5.5275 -24.25 4.8675 -24.25 4.1875 C-24.91 4.1875 -25.57 4.1875 -26.25 4.1875 C-26.25 2.5375 -26.25 0.8875 -26.25 -0.8125 C-18.07960584 -6.18775932 -8.68365374 -2.67546824 0 0 Z " fill="#9098ED" transform="translate(144.25,51.8125)"/>
<path d="M0 0 C0.80201843 -0.00499512 1.60403687 -0.00999023 2.43035889 -0.01513672 C26.82168472 -0.14046145 26.82168472 -0.14046145 32.8125 4.75 C35.9557525 9.50006441 37.75 15.58558139 37.75 21.25 C33.13 21.25 28.51 21.25 23.75 21.25 C24.08 18.61 24.41 15.97 24.75 13.25 C21.77640551 11.76320275 19.08700821 12.13887395 15.7734375 12.15234375 C15.08819 12.1537587 14.4029425 12.15517365 13.69692993 12.15663147 C11.50624239 12.16223325 9.3156567 12.17478594 7.125 12.1875 C5.64062648 12.19251478 4.15625135 12.19707772 2.671875 12.20117188 C-0.96878315 12.21220323 -4.60938164 12.22946901 -8.25 12.25 C-8.25 11.92 -8.25 11.59 -8.25 11.25 C-14.72358807 11.08016428 -21.19737375 10.92059709 -27.67138672 10.76782227 C-29.86903476 10.71479115 -32.06662952 10.65949798 -34.26416016 10.60180664 C-37.44161489 10.51879726 -40.61917885 10.44420427 -43.796875 10.37109375 C-44.7630072 10.34405869 -45.7291394 10.31702362 -46.72454834 10.28916931 C-53.62469549 10.14166172 -60.38443566 10.56105831 -67.25 11.25 C-68.375 7.5 -68.375 7.5 -67.25 5.25 C-66.59 5.25 -65.93 5.25 -65.25 5.25 C-64.92 4.26 -64.59 3.27 -64.25 2.25 C-63.20078369 2.26740234 -63.20078369 2.26740234 -62.13037109 2.28515625 C-55.29633476 2.34782303 -48.55874476 2.04770248 -41.74511719 1.53808594 C-27.8266354 0.50201424 -13.95675482 0.03008879 0 0 Z " fill="#8E96EB" transform="translate(129.25,16.75)"/>
<path d="M0 0 C-0.97445098 2.8421487 -1.90954403 4.89282108 -3.859375 7.203125 C-6.34009491 10.44435758 -7.92448873 13.8301343 -9.5 17.5625 C-9.80405762 18.26922852 -10.10811523 18.97595703 -10.42138672 19.70410156 C-12.5652299 24.76554018 -14.37592744 29.88383089 -16.03515625 35.125 C-17.99482146 40.96432629 -20.51660856 46.60939098 -22.984375 52.25 C-25.12498624 57.41977808 -25 59.90070853 -25 66 C-31.93 66 -38.86 66 -46 66 C-45.67 65.01 -45.34 64.02 -45 63 C-44.90796257 61.48138245 -44.86998716 59.95889574 -44.875 58.4375 C-44.87242187 57.65246094 -44.86984375 56.86742187 -44.8671875 56.05859375 C-44.87023634 53.93561023 -44.87023634 53.93561023 -46 52 C-45.34 51.566875 -44.68 51.13375 -44 50.6875 C-43.34 50.130625 -42.68 49.57375 -42 49 C-42 48.01 -42 47.02 -42 46 C-40.0625 46.625 -40.0625 46.625 -38 48 C-37.25 51.125 -37.25 51.125 -37 54 C-36.67 53.34 -36.34 52.68 -36 52 C-35.34 52 -34.68 52 -34 52 C-34.03697998 51.12400146 -34.07395996 50.24800293 -34.11206055 49.34545898 C-33.99825141 45.94779769 -33.39424495 43.63809767 -32.20703125 40.47265625 C-31.82603271 39.43963379 -31.44503418 38.40661133 -31.05249023 37.34228516 C-30.64329346 36.25995605 -30.23409668 35.17762695 -29.8125 34.0625 C-28.98578172 31.82205608 -28.16025704 29.58117135 -27.3359375 27.33984375 C-26.9347168 26.25558105 -26.53349609 25.17131836 -26.12011719 24.05419922 C-24.66859799 20.09637332 -23.27819944 16.12158063 -21.9375 12.125 C-21.55464844 10.99320313 -21.17179687 9.86140625 -20.77734375 8.6953125 C-19.8614444 5.98710923 -19.8614444 5.98710923 -20 3 C-20.66 2.67 -21.32 2.34 -22 2 C-22 1.34 -22 0.68 -22 0 C-19.27119539 -0.19555932 -16.54228931 -0.38170447 -13.8125 -0.5625 C-13.04357422 -0.61857422 -12.27464844 -0.67464844 -11.48242188 -0.73242188 C-7.45938647 -0.99141557 -3.93927628 -1.06573607 0 0 Z " fill="#C6A8EF" transform="translate(435,18)"/>
<path d="M0 0 C6.6 0 13.2 0 20 0 C20 1.32 20 2.64 20 4 C20.49286593 9.3077869 21.90797591 13.69754603 24.125 18.5 C24.4341333 19.18779541 24.7432666 19.87559082 25.06176758 20.58422852 C26.02985242 22.72821211 27.01212351 24.8650701 28 27 C28.31340332 27.67788574 28.62680664 28.35577148 28.94970703 29.05419922 C30.43175736 32.25116012 31.92383659 35.44331588 33.421875 38.6328125 C34.77494992 41.5198189 36.12025324 44.4089913 37.4375 47.3125 C37.74558594 47.98925781 38.05367188 48.66601562 38.37109375 49.36328125 C39 51 39 51 39 53 C39.66 53 40.32 53 41 53 C41.33 51.68 41.66 50.36 42 49 C43.41973403 51.65017018 44.35828704 54.06645502 45 57 C45.185625 57.66 45.37125 58.32 45.5625 59 C46 61 46 61 46 65 C46.99 65.495 46.99 65.495 48 66 C48 64.02 48 62.04 48 60 C48.99 60.495 48.99 60.495 50 61 C50.495 63.97 50.495 63.97 51 67 C44.07 67 37.14 67 30 67 C29 65 29 65 28.57055664 62.24731445 C26.77924452 52.05208876 21.48175397 42.43224515 16.97094727 33.1784668 C16.05970329 31.30675551 15.15927471 29.43010869 14.25976562 27.55273438 C8.0847112 14.28292253 8.0847112 14.28292253 -1 3 C-0.67 2.01 -0.34 1.02 0 0 Z " fill="#5D8AE8" transform="translate(307,17)"/>
<path d="M0 0 C3.5 0.125 3.5 0.125 4.5 1.125 C4.57258946 3.31139453 4.58373783 5.50000389 4.5625 7.6875 C4.55347656 8.88503906 4.54445312 10.08257812 4.53515625 11.31640625 C4.52355469 12.24324219 4.51195312 13.17007813 4.5 14.125 C5.93666016 14.18107422 5.93666016 14.18107422 7.40234375 14.23828125 C14.86515665 14.5848603 22.19559949 15.23305997 29.5625 16.5 C30.25142334 16.61384033 30.94034668 16.72768066 31.65014648 16.8449707 C36.46262117 17.72118831 39.83273452 19.12474336 44.5 21.125 C44.5 14.525 44.5 7.925 44.5 1.125 C47.47 1.125 50.44 1.125 53.5 1.125 C53.5 12.675 53.5 24.225 53.5 36.125 C50.86 36.455 48.22 36.785 45.5 37.125 C43.5 31.375 43.5 31.375 43.5 29.125 C42.81292969 28.92003906 42.12585938 28.71507813 41.41796875 28.50390625 C40.51691406 28.23449219 39.61585938 27.96507813 38.6875 27.6875 C37.79417969 27.42066406 36.90085938 27.15382813 35.98046875 26.87890625 C34.14526945 26.32112127 32.31966274 25.73155425 30.5 25.125 C17.21857022 22.95421217 17.21857022 22.95421217 4.5 25.125 C4.5 28.755 4.5 32.385 4.5 36.125 C1.53 36.125 -1.44 36.125 -4.5 36.125 C-4.52465098 31.15877651 -4.54283649 26.19258834 -4.55493164 21.22631836 C-4.5599719 19.53555684 -4.56680405 17.84479971 -4.57543945 16.15405273 C-4.58751857 13.72899293 -4.59323123 11.30399056 -4.59765625 8.87890625 C-4.60281754 8.11848526 -4.60797882 7.35806427 -4.61329651 6.57460022 C-4.61349238 4.7576743 -4.56197277 2.94086873 -4.5 1.125 C-3.5 0.125 -3.5 0.125 0 0 Z " fill="#848CDF" transform="translate(186.5,22.875)"/>
<path d="M0 0 C0.74548096 0.09514893 1.49096191 0.19029785 2.2590332 0.28833008 C10.86552398 1.54692774 18.20260521 4.4607909 23.625 11.546875 C25.55938982 14.98895101 25.75058936 17.46287024 25.6875 21.4375 C23.56819299 28.06033442 18.43916489 31.77503579 12.6875 35.25 C3.09037491 39.04886201 -9.40425579 38.80153128 -19.0625 35.41796875 C-24.65234594 32.98211574 -30.42088364 29.97976469 -33.3125 24.4375 C-34.11677264 19.89406509 -34.28400598 15.62542944 -32.3828125 11.34375 C-28.20968965 5.71373811 -21.74756836 3.60416236 -15.3125 1.4375 C-13.64960938 0.85742188 -13.64960938 0.85742188 -11.953125 0.265625 C-7.69457124 -0.7030589 -4.29123143 -0.56132897 0 0 Z M-24.3125 13.4375 C-26.62451886 16.30460308 -26.62451886 16.30460308 -26.3125 19.8125 C-25.03292335 24.45096535 -23.25671118 25.78274248 -19.3125 28.4375 C-10.72870677 32.56603723 0.45956083 32.39368852 9.37109375 29.4453125 C13.01384511 27.86043923 15.06205746 26.4774861 17.6875 23.4375 C18.976256 19.42803688 19.24218043 17.52164811 17.3125 13.75 C5.72750318 3.54416946 -12.43240032 4.16522708 -24.3125 13.4375 Z " fill="#E5B0F5" transform="translate(281.3125,22.5625)"/>
<path d="M0 0 C0.85851562 0.24814453 1.71703125 0.49628906 2.6015625 0.75195312 C10.513321 3.14373858 15.81600162 6.56184503 20.75 13.1875 C22.20152772 17.54208317 22.38083265 21.64115437 21.75 26.1875 C19.3302577 29.78045069 17.89396364 30.94772984 13.65625 31.8359375 C9.13367109 32.2429696 4.83250146 32.06687359 0.3125 31.75 C-0.51443359 31.69779297 -1.34136719 31.64558594 -2.19335938 31.59179688 C-4.21265478 31.46340237 -6.23139629 31.32634576 -8.25 31.1875 C-7.92 30.5275 -7.59 29.8675 -7.25 29.1875 C-6.46625 29.208125 -5.6825 29.22875 -4.875 29.25 C-2.26885039 29.37434063 -2.26885039 29.37434063 -0.25 28.1875 C0.843125 28.455625 1.93625 28.72375 3.0625 29 C6.58003072 29.56969528 6.58003072 29.56969528 8.3203125 28.02734375 C10.62189947 25.35092691 11.75 23.76451939 11.75 20.1875 C11.358125 20.703125 10.96625 21.21875 10.5625 21.75 C9.964375 22.224375 9.36625 22.69875 8.75 23.1875 C6.0625 22.875 6.0625 22.875 3.75 22.1875 C3.75 22.8475 3.75 23.5075 3.75 24.1875 C2.945625 24.0225 2.14125 23.8575 1.3125 23.6875 C-2.90887352 23.09502652 -6.99664545 23.10243291 -11.25 23.1875 C-7.52933528 20.70705685 -4.38459526 20.74368827 -0.0625 20.5625 C0.68708984 20.52382812 1.43667969 20.48515625 2.20898438 20.4453125 C4.05559199 20.35121784 5.9027619 20.26827681 7.75 20.1875 C6.00072582 15.98496207 4.04552418 14.95635094 0.04101562 13.10693359 C-3.72860567 11.59410391 -7.57216883 10.51796291 -11.5 9.5 C-12.28890625 9.28794922 -13.0778125 9.07589844 -13.890625 8.85742188 C-17.33590799 7.93499391 -20.78874024 7.04797808 -24.25 6.1875 C-24.25 5.5275 -24.25 4.8675 -24.25 4.1875 C-24.91 4.1875 -25.57 4.1875 -26.25 4.1875 C-26.25 2.5375 -26.25 0.8875 -26.25 -0.8125 C-18.07960584 -6.18775932 -8.68365374 -2.67546824 0 0 Z " fill="#B6A2F0" transform="translate(144.25,51.8125)"/>
<path d="M0 0 C6.59298782 2.82556621 11.44288791 6.40056972 16 12 C16 12.66 16 13.32 16 14 C16.66 14 17.32 14 18 14 C24.88080124 22.3518691 28.9701347 32.0764567 33 42 C33.99 41.01 34.98 40.02 36 39 C35.125 43.75 35.125 43.75 34 46 C33.34 46 32.68 46 32 46 C31.71125 45.21625 31.4225 44.4325 31.125 43.625 C30.15087746 40.90328368 30.15087746 40.90328368 28 39 C27.566875 39.928125 27.566875 39.928125 27.125 40.875 C26 43 26 43 24 45 C24.33 45.99 24.66 46.98 25 48 C24.5625 50.1875 24.5625 50.1875 24 52 C23.58041016 50.81857422 23.58041016 50.81857422 23.15234375 49.61328125 C19.11283276 38.63776105 14.15028659 28.3170401 7 19 C6.34 19.33 5.68 19.66 5 20 C1.9375 19.3125 1.9375 19.3125 -1 18 C-1.95417268 15.81903388 -2 14.35817766 -2 12 C-2.1547747 10.62361068 -2.32275148 9.248676 -2.5 7.875 C-2.665 6.59625 -2.83 5.3175 -3 4 C-1.68 4.99 -0.36 5.98 1 7 C0.34 5.02 -0.32 3.04 -1 1 C-0.67 0.67 -0.34 0.34 0 0 Z " fill="#A59DEA" transform="translate(366,26)"/>
<path d="M0 0 C0.74759079 0.0028299 1.49518158 0.00565979 2.26542664 0.00857544 C4.63935755 0.01971781 7.012903 0.04481088 9.38671875 0.0703125 C11.00194765 0.08035001 12.61718251 0.08947451 14.23242188 0.09765625 C18.17983469 0.11963761 22.12696149 0.15412593 26.07421875 0.1953125 C26.07421875 0.8553125 26.07421875 1.5153125 26.07421875 2.1953125 C21.98080948 2.3381677 17.88738483 2.48057284 13.79394531 2.62255859 C12.40103735 2.67093698 11.00813367 2.71943895 9.61523438 2.76806641 C7.61459462 2.8378893 5.61393816 2.90723281 3.61328125 2.9765625 C2.40881348 3.01845703 1.2043457 3.06035156 -0.03662109 3.10351562 C-1.66580624 3.15527949 -3.29577397 3.1953125 -4.92578125 3.1953125 C-5.25578125 3.8553125 -5.58578125 4.5153125 -5.92578125 5.1953125 C-6.58578125 5.1953125 -7.24578125 5.1953125 -7.92578125 5.1953125 C-7.92578125 7.1753125 -7.92578125 9.1553125 -7.92578125 11.1953125 C-7.26578125 10.8653125 -6.60578125 10.5353125 -5.92578125 10.1953125 C1.51362574 9.1121289 8.93382957 9.10776591 16.4296875 9.31640625 C17.97116203 9.35182274 17.97116203 9.35182274 19.54377747 9.38795471 C22.78326355 9.46371421 26.02245549 9.54810853 29.26171875 9.6328125 C31.4758977 9.68612131 33.69009044 9.73886087 35.90429688 9.79101562 C41.29444751 9.91920843 46.6843847 10.05446561 52.07421875 10.1953125 C51.74421875 10.8553125 51.41421875 11.5153125 51.07421875 12.1953125 C33.25421875 12.1953125 15.43421875 12.1953125 -2.92578125 12.1953125 C-1.60578125 13.5153125 -0.28578125 14.8353125 1.07421875 16.1953125 C1.07421875 16.8553125 1.07421875 17.5153125 1.07421875 18.1953125 C2.06421875 18.5253125 3.05421875 18.8553125 4.07421875 19.1953125 C3.74421875 20.5153125 3.41421875 21.8353125 3.07421875 23.1953125 C3.73421875 23.1953125 4.39421875 23.1953125 5.07421875 23.1953125 C5.07421875 23.8553125 5.07421875 24.5153125 5.07421875 25.1953125 C4.08421875 25.1953125 3.09421875 25.1953125 2.07421875 25.1953125 C2.07421875 26.1853125 2.07421875 27.1753125 2.07421875 28.1953125 C3.02296875 27.9890625 3.97171875 27.7828125 4.94921875 27.5703125 C6.49609375 27.3846875 6.49609375 27.3846875 8.07421875 27.1953125 C8.73421875 27.8553125 9.39421875 28.5153125 10.07421875 29.1953125 C9.41421875 29.1953125 8.75421875 29.1953125 8.07421875 29.1953125 C7.74421875 29.8553125 7.41421875 30.5153125 7.07421875 31.1953125 C4.52625566 30.48418266 1.98742126 29.75238154 -0.55078125 29.0078125 C-1.62005859 28.71293945 -1.62005859 28.71293945 -2.7109375 28.41210938 C-8.5025671 26.68524734 -12.79760379 24.35067388 -16.27734375 19.19140625 C-17.56178199 15.23750299 -17.46296505 11.28719404 -16.92578125 7.1953125 C-13.03746627 0.28275254 -7.35644555 -0.10577686 0 0 Z " fill="#367DDF" transform="translate(69.92578125,16.8046875)"/>
<path d="M0 0 C0 0.99 0 1.98 0 3 C-0.66 3 -1.32 3 -2 3 C-1.45291273 5.53744315 -1.45291273 5.53744315 0 8 C5.47239543 9.49247148 11.24648382 9.11207365 16.875 9.0625 C17.84953125 9.05798828 18.8240625 9.05347656 19.828125 9.04882812 C22.21881434 9.03710906 24.6093744 9.02070219 27 9 C27 9.99 27 10.98 27 12 C19.4568898 13.25718503 12.5431102 13.25718503 5 12 C3.8509288 13.9254644 3.8509288 13.9254644 4 16 C11.04765067 16.93968676 17.89657655 17.08901533 25 17 C32.10342345 16.91098467 38.95234933 17.06031324 46 18 C46 18.33 46 18.66 46 19 C40.29967405 19.78636367 34.68289338 20.23171615 28.93359375 20.421875 C27.67700706 20.46371918 27.67700706 20.46371918 26.39503479 20.50640869 C24.63623183 20.56242616 22.87735227 20.61608433 21.1184082 20.66748047 C19.32911309 20.72255576 17.54002305 20.78474736 15.7512207 20.85400391 C13.14559868 20.95479889 10.54007194 21.03440093 7.93359375 21.109375 C7.14174179 21.14359558 6.34988983 21.17781616 5.53404236 21.21307373 C-1.20920263 21.36519291 -5.8119436 20.04535707 -10.875 15.3125 C-13.51238296 11.20128539 -13.68838768 8.8299909 -14 4 C-14.30801721 2.66059182 -14.63489297 1.32498519 -15 0 C-12.87562788 -0.19448477 -10.75046809 -0.38038289 -8.625 -0.5625 C-7.44164062 -0.66691406 -6.25828125 -0.77132812 -5.0390625 -0.87890625 C-2 -1 -2 -1 0 0 Z " fill="#3D81E3" transform="translate(66,63)"/>
<path d="M0 0 C3.5 0.125 3.5 0.125 4.5 1.125 C4.57258946 3.31139453 4.58373783 5.50000389 4.5625 7.6875 C4.55347656 8.88503906 4.54445312 10.08257812 4.53515625 11.31640625 C4.52355469 12.24324219 4.51195312 13.17007813 4.5 14.125 C5.31984375 14.17398438 6.1396875 14.22296875 6.984375 14.2734375 C8.06203125 14.34820312 9.1396875 14.42296875 10.25 14.5 C11.31734375 14.56960937 12.3846875 14.63921875 13.484375 14.7109375 C16.30206432 15.0978223 18.0830366 15.68186166 20.5 17.125 C20.29375 17.74375 20.0875 18.3625 19.875 19 C19.75125 19.70125 19.6275 20.4025 19.5 21.125 C20.16 21.785 20.82 22.445 21.5 23.125 C19.91058594 23.21587891 19.91058594 23.21587891 18.2890625 23.30859375 C16.90102779 23.39300127 15.51300768 23.47764917 14.125 23.5625 C13.07699219 23.62147461 13.07699219 23.62147461 12.0078125 23.68164062 C8.12639508 23.86780134 8.12639508 23.86780134 4.5 25.125 C4.5 28.755 4.5 32.385 4.5 36.125 C1.53 36.125 -1.44 36.125 -4.5 36.125 C-4.52465098 31.15877651 -4.54283649 26.19258834 -4.55493164 21.22631836 C-4.5599719 19.53555684 -4.56680405 17.84479971 -4.57543945 16.15405273 C-4.58751857 13.72899293 -4.59323123 11.30399056 -4.59765625 8.87890625 C-4.60281754 8.11848526 -4.60797882 7.35806427 -4.61329651 6.57460022 C-4.61349238 4.7576743 -4.56197277 2.94086873 -4.5 1.125 C-3.5 0.125 -3.5 0.125 0 0 Z " fill="#2C7AE1" transform="translate(186.5,22.875)"/>
<path d="M0 0 C-0.96970826 2.82831577 -1.8884374 4.86952849 -3.84375 7.15625 C-6.50268854 10.66296605 -8.06665277 14.27029926 -9.75 18.3125 C-10.06582031 19.05306641 -10.38164062 19.79363281 -10.70703125 20.55664062 C-11.47837159 22.36812172 -12.24016858 24.18366141 -13 26 C-13.66 26 -14.32 26 -15 26 C-15.66 28.31 -16.32 30.62 -17 33 C-17.33 32.34 -17.66 31.68 -18 31 C-18.66 31 -19.32 31 -20 31 C-20 30.34 -20 29.68 -20 29 C-21.65 29.33 -23.3 29.66 -25 30 C-25 28.68 -25 27.36 -25 26 C-24.34 26 -23.68 26 -23 26 C-21.78309467 24.23470405 -21.78309467 24.23470405 -21 22 C-21.51046875 21.12794922 -21.51046875 21.12794922 -22.03125 20.23828125 C-23.40533177 17.06348748 -22.57505466 15.21397055 -21.625 11.9375 C-20.36305428 7.53396093 -20.36305428 7.53396093 -20 3 C-20.66 2.67 -21.32 2.34 -22 2 C-22 1.34 -22 0.68 -22 0 C-19.27119539 -0.19555932 -16.54228931 -0.38170447 -13.8125 -0.5625 C-13.04357422 -0.61857422 -12.27464844 -0.67464844 -11.48242188 -0.73242188 C-7.45938647 -0.99141557 -3.93927628 -1.06573607 0 0 Z " fill="#D8AEF7" transform="translate(435,18)"/>
<path d="M0 0 C6.6 0 13.2 0 20 0 C20 1.32 20 2.64 20 4 C20.47972616 9.2339354 21.77748734 13.12293401 24.125 17.8125 C25.1411483 19.84713797 26.11509583 21.90494543 27 24 C26.67 24.66 26.34 25.32 26 26 C23.48916886 24.74458443 23.12874554 23.49936512 22 21 C22.33 22.32 22.66 23.64 23 25 C21.02 25.99 21.02 25.99 19 27 C19.33 27.99 19.66 28.98 20 30 C19.34 30 18.68 30 18 30 C17.67 30.99 17.34 31.98 17 33 C16.63237549 32.26885986 16.26475098 31.53771973 15.88598633 30.78442383 C14.2048939 27.45525335 12.50888554 24.1339021 10.8125 20.8125 C10.23435547 19.66201172 9.65621094 18.51152344 9.06054688 17.32617188 C8.49013672 16.21435547 7.91972656 15.10253906 7.33203125 13.95703125 C6.81358643 12.93585205 6.2951416 11.91467285 5.76098633 10.86254883 C3.84919972 7.75486854 1.66620467 5.47533543 -1 3 C-0.67 2.01 -0.34 1.02 0 0 Z " fill="#3E7CDB" transform="translate(307,17)"/>
<path d="M0 0 C-0.33 1.32 -0.66 2.64 -1 4 C0.98 3.67 2.96 3.34 5 3 C2 5 2 5 -1.375 6.3125 C-5.26730463 8.12443491 -7.47321539 9.52567116 -10 13 C-10.14415438 17.10839979 -9.75800322 19.1197382 -7.0625 22.25 C-2.90815614 24.62391078 1.38374913 25.8168056 6 27 C5.01 27.99 4.02 28.98 3 30 C5.96178773 31.67110042 8.37071192 32.32682752 11.75 32.625 C12.54921875 32.69976562 13.3484375 32.77453125 14.171875 32.8515625 C14.77515625 32.90054688 15.3784375 32.94953125 16 33 C16 33.33 16 33.66 16 34 C3.1285436 34.59712942 -6.59689245 32.29264142 -16.5 23.875 C-18.88405378 19.30556359 -18.9306291 15.02828281 -18 10 C-15.29013989 4.42689148 -10.56675975 1.89387982 -5.05078125 -0.46875 C-3 -1 -3 -1 0 0 Z " fill="#A195E0" transform="translate(266,26)"/>
<path d="M0 0 C0.33 0.66 0.66 1.32 1 2 C-1 4 -1 4 -3.14453125 4.23046875 C-10.45882374 4.11266902 -17.71373114 3.64869802 -25 3 C-25 4.32 -25 5.64 -25 7 C-17.08 6.505 -17.08 6.505 -9 6 C-8 11 -8 11 -9 13 C-4.545 12.505 -4.545 12.505 0 12 C0 13.32 0 14.64 0 16 C-8.16617194 16.84388104 -15.84997076 17.06162705 -24 16 C-24.33 16.66 -24.66 17.32 -25 18 C-26.32 17.67 -27.64 17.34 -29 17 C-29 11.39 -29 5.78 -29 0 C-19.29080846 -0.90085282 -9.68417263 -1.50700927 0 0 Z M-24 10 C-24 10.33 -24 10.66 -24 11 C-20.59679066 11.67673447 -20.59679066 11.67673447 -17 12 C-16.34 11.34 -15.68 10.68 -15 10 C-17.97 10 -20.94 10 -24 10 Z " fill="#CAABED" transform="translate(287,76)"/>
<path d="M0 0 C1.66796875 1.5234375 1.66796875 1.5234375 3.1875 3.375 C3.69667969 3.98085938 4.20585937 4.58671875 4.73046875 5.2109375 C7.81864815 9.56289494 7.70917306 14.88906313 7 20 C4.5802577 23.59295069 3.14396364 24.76022984 -1.09375 25.6484375 C-5.61632891 26.0554696 -9.91749854 25.87937359 -14.4375 25.5625 C-15.26443359 25.51029297 -16.09136719 25.45808594 -16.94335938 25.40429688 C-18.96265478 25.27590237 -20.98139629 25.13884576 -23 25 C-22.67 24.34 -22.34 23.68 -22 23 C-21.21625 23.020625 -20.4325 23.04125 -19.625 23.0625 C-17.01885039 23.18684063 -17.01885039 23.18684063 -15 22 C-13.906875 22.268125 -12.81375 22.53625 -11.6875 22.8125 C-8.16996928 23.38219528 -8.16996928 23.38219528 -6.4296875 21.83984375 C-4.12810053 19.16342691 -3 17.57701939 -3 14 C-3.99 14.99 -4.98 15.98 -6 17 C-5.95875 16.0925 -5.9175 15.185 -5.875 14.25 C-5.99601574 11.10359074 -6.28104132 9.57843802 -8 7 C-8.66 6.67 -9.32 6.34 -10 6 C-10 4 -10 4 -8 2 C-7.67 1.34 -7.34 0.68 -7 0 C-3.8285551 -1.0571483 -3.01265869 -1.15826489 0 0 Z " fill="#DAAFF7" transform="translate(159,58)"/>
<path d="M0 0 C2 2 2 2 2 6 C2.9590625 6.433125 2.9590625 6.433125 3.9375 6.875 C6 8 6 8 7 10 C7.103125 11.03125 7.20625 12.0625 7.3125 13.125 C7.91772642 16.53627616 8.47538424 18.06342718 10.125 20.9375 C12.50130344 25.34571507 12.18301622 28.18343395 11 33 C10.01 33.495 10.01 33.495 9 34 C9 33.01 9 32.02 9 31 C8.34 31 7.68 31 7 31 C6.505 33.475 6.505 33.475 6 36 C0.54668443 29.47280075 -4.49225141 19.08228387 -4.4375 10.5 C-4.293125 9.345 -4.14875 8.19 -4 7 C-2.68 6.67 -1.36 6.34 0 6 C-0.185625 5.38125 -0.37125 4.7625 -0.5625 4.125 C-1 2 -1 2 0 0 Z " fill="#4881E1" transform="translate(329,36)"/>
<path d="M0 0 C13.5 3 13.5 3 27 6 C26.34 6.33 25.68 6.66 25 7 C24.67 7.99 24.34 8.98 24 10 C24 9.34 24 8.68 24 8 C20.88794071 9.98512949 20.88794071 9.98512949 19.25 13.1875 C19.1675 13.785625 19.085 14.38375 19 15 C19.66 15.33 20.32 15.66 21 16 C19.3954444 15.85851011 17.79136233 15.71164314 16.1875 15.5625 C15.29417969 15.48128906 14.40085937 15.40007813 13.48046875 15.31640625 C11 15 11 15 8 14 C8 13.34 8 12.68 8 12 C6.68 12 5.36 12 4 12 C4 11.34 4 10.68 4 10 C1.36 10 -1.28 10 -4 10 C-4 7 -4 7 -3 5 C-3.99 4.67 -4.98 4.34 -6 4 C-5.01 3.01 -4.02 2.02 -3 1 C-2.01 1.33 -1.02 1.66 0 2 C0 1.34 0 0.68 0 0 Z " fill="#7F94EB" transform="translate(99,41)"/>
<path d="M0 0 C0.74548096 0.09514893 1.49096191 0.19029785 2.2590332 0.28833008 C11.28464633 1.60821944 17.90578399 4.73798928 23.82421875 11.7890625 C24.25154297 12.60503906 24.25154297 12.60503906 24.6875 13.4375 C24.3575 14.4275 24.0275 15.4175 23.6875 16.4375 C23.6875 15.7775 23.6875 15.1175 23.6875 14.4375 C22.3675 14.7675 21.0475 15.0975 19.6875 15.4375 C19.6875 17.4175 19.6875 19.3975 19.6875 21.4375 C19.3575 21.4375 19.0275 21.4375 18.6875 21.4375 C18.460625 20.365 18.23375 19.2925 18 18.1875 C16.46856128 13.81196081 15.67940196 12.71858683 11.6875 10.4375 C2.61682946 6.65941101 -6.69105162 7.1329524 -16.3125 7.4375 C-16.6425 6.4475 -16.9725 5.4575 -17.3125 4.4375 C-15.3125 1.4375 -15.3125 1.4375 -12.20703125 0.21484375 C-7.85427506 -0.65396115 -4.36234493 -0.57063121 0 0 Z " fill="#DEACF4" transform="translate(281.3125,22.5625)"/>
<path d="M0 0 C8.47687553 0 13.93204704 5.48195528 20 11 C20.268125 10.113125 20.53625 9.22625 20.8125 8.3125 C21.94755607 5.14629095 22.907481 2.63502393 25 0 C26.65 0 28.3 0 30 0 C30 5.61 30 11.22 30 17 C29.01 17.33 28.02 17.66 27 18 C26.34 17.67 25.68 17.34 25 17 C25 14.69 25 12.38 25 10 C23.68 12.31 22.36 14.62 21 17 C17.41209425 16.70100785 16.21833224 16.23013399 13.6875 13.5625 C12 11 12 11 12 9 C9.34771188 7.92474806 6.71631546 6.90543849 4 6 C4 9.63 4 13.26 4 17 C2.68 17 1.36 17 0 17 C0 11.39 0 5.78 0 0 Z " fill="#9E98E3" transform="translate(226,75)"/>
<path d="M0 0 C6.59298782 2.82556621 11.44288791 6.40056972 16 12 C16 12.66 16 13.32 16 14 C16.66 14 17.32 14 18 14 C18.66 15.65 19.32 17.3 20 19 C18.68 18.01 17.36 17.02 16 16 C15.01 18.475 15.01 18.475 14 21 C13.34 21 12.68 21 12 21 C12.33 22.65 12.66 24.3 13 26 C10.66475218 23.74259377 8.81294927 21.7194239 7 19 C6.34 19.33 5.68 19.66 5 20 C1.9375 19.3125 1.9375 19.3125 -1 18 C-1.95417268 15.81903388 -2 14.35817766 -2 12 C-2.1547747 10.62361068 -2.32275148 9.248676 -2.5 7.875 C-2.665 6.59625 -2.83 5.3175 -3 4 C-1.68 4.99 -0.36 5.98 1 7 C0.34 5.02 -0.32 3.04 -1 1 C-0.67 0.67 -0.34 0.34 0 0 Z " fill="#8897ED" transform="translate(366,26)"/>
<path d="M0 0 C11.55 0 23.1 0 35 0 C35 5.61 35 11.22 35 17 C33.35 17 31.7 17 30 17 C30 12.38 30 7.76 30 3 C29.67 3.33 29.34 3.66 29 4 C26.32941149 4.14115161 23.67567762 4.04247107 21 4 C21 8.29 21 12.58 21 17 C19.68 17.33 18.36 17.66 17 18 C15.07427479 14.14854957 15.95116782 9.19956748 16 5 C10.72 4.67 5.44 4.34 0 4 C0 2.68 0 1.36 0 0 Z " fill="#707FCA" transform="translate(189,75)"/>
<path d="M0 0 C2.97 0 5.94 0 9 0 C8.67 0.99 8.34 1.98 8 3 C8 2.34 8 1.68 8 1 C6.02 1 4.04 1 2 1 C2 8.26 2 15.52 2 23 C0.02 23.99 0.02 23.99 -2 25 C-1.34 25.33 -0.68 25.66 0 26 C-0.33 26.66 -0.66 27.32 -1 28 C-2.60433809 27.52140759 -4.20846416 27.04210442 -5.8125 26.5625 C-6.70582031 26.29566406 -7.59914062 26.02882813 -8.51953125 25.75390625 C-10.35473055 25.19612127 -12.18033726 24.60655425 -14 24 C-16.05893621 23.77674186 -18.12233653 23.59294241 -20.1875 23.4375 C-21.27417969 23.35371094 -22.36085937 23.26992188 -23.48046875 23.18359375 C-24.72763672 23.09271484 -24.72763672 23.09271484 -26 23 C-26.33 22.01 -26.66 21.02 -27 20 C-26.34 19.67 -25.68 19.34 -25 19 C-24.67 18.01 -24.34 17.02 -24 16 C-25.32 15.67 -26.64 15.34 -28 15 C-23.70547268 13.70979354 -20.01525812 14.44953307 -15.6875 15.25 C-14.95337891 15.37246094 -14.21925781 15.49492188 -13.46289062 15.62109375 C-12.73650391 15.75128906 -12.01011719 15.88148437 -11.26171875 16.015625 C-10.61162842 16.13196289 -9.96153809 16.24830078 -9.29174805 16.36816406 C-6.085918 17.25201281 -3.0565594 18.69004597 0 20 C0 13.4 0 6.8 0 0 Z " fill="#7483D5" transform="translate(231,24)"/>
<path d="M0 0 C3.5 0.125 3.5 0.125 4.5 1.125 C4.54063832 2.79117115 4.542721 4.45888095 4.5 6.125 C4.17 4.805 3.84 3.485 3.5 2.125 C1.52 2.455 -0.46 2.785 -2.5 3.125 C-2.83 13.685 -3.16 24.245 -3.5 35.125 C-1.19 35.125 1.12 35.125 3.5 35.125 C3.17 34.465 2.84 33.805 2.5 33.125 C2.42948311 31.48054606 2.41574906 29.83332146 2.4375 28.1875 C2.44652344 27.31222656 2.45554688 26.43695313 2.46484375 25.53515625 C2.47644531 24.73980469 2.48804688 23.94445312 2.5 23.125 C2.5 22.135 2.5 21.145 2.5 20.125 C3.16 19.465 3.82 18.805 4.5 18.125 C3.84 17.465 3.18 16.805 2.5 16.125 C2.23008094 13.43660615 2.41262643 10.83358064 2.5 8.125 C2.83 8.125 3.16 8.125 3.5 8.125 C3.83 10.105 4.16 12.085 4.5 14.125 C5.31984375 14.17398438 6.1396875 14.22296875 6.984375 14.2734375 C8.06203125 14.34820312 9.1396875 14.42296875 10.25 14.5 C11.31734375 14.56960937 12.3846875 14.63921875 13.484375 14.7109375 C16.30206432 15.0978223 18.0830366 15.68186166 20.5 17.125 C20.29375 17.74375 20.0875 18.3625 19.875 19 C19.75125 19.70125 19.6275 20.4025 19.5 21.125 C20.16 21.785 20.82 22.445 21.5 23.125 C19.91058594 23.21587891 19.91058594 23.21587891 18.2890625 23.30859375 C16.90102779 23.39300127 15.51300768 23.47764917 14.125 23.5625 C13.07699219 23.62147461 13.07699219 23.62147461 12.0078125 23.68164062 C8.12639508 23.86780134 8.12639508 23.86780134 4.5 25.125 C4.5 28.755 4.5 32.385 4.5 36.125 C1.53 36.125 -1.44 36.125 -4.5 36.125 C-4.52465098 31.15877651 -4.54283649 26.19258834 -4.55493164 21.22631836 C-4.5599719 19.53555684 -4.56680405 17.84479971 -4.57543945 16.15405273 C-4.58751857 13.72899293 -4.59323123 11.30399056 -4.59765625 8.87890625 C-4.60281754 8.11848526 -4.60797882 7.35806427 -4.61329651 6.57460022 C-4.61349238 4.7576743 -4.56197277 2.94086873 -4.5 1.125 C-3.5 0.125 -3.5 0.125 0 0 Z " fill="#3D7FE1" transform="translate(186.5,22.875)"/>
<path d="M0 0 C1.9375 0.625 1.9375 0.625 4 2 C4.75 5.125 4.75 5.125 5 8 C5.33 7.34 5.66 6.68 6 6 C6.66 6 7.32 6 8 6 C8.33 4.35 8.66 2.7 9 1 C10.32 1.66 11.64 2.32 13 3 C12.01 3.495 12.01 3.495 11 4 C11.061875 4.763125 11.12375 5.52625 11.1875 6.3125 C11 9 11 9 9.5625 10.375 C7.14743461 12.88666801 7.31735658 15.63602027 7 19 C9.64 19 12.28 19 15 19 C15.33 18.34 15.66 17.68 16 17 C16.33 17.99 16.66 18.98 17 20 C10.07 20 3.14 20 -4 20 C-3.505 18.515 -3.505 18.515 -3 17 C-2.90796257 15.48138245 -2.86998716 13.95889574 -2.875 12.4375 C-2.87242187 11.65246094 -2.86984375 10.86742188 -2.8671875 10.05859375 C-2.87023634 7.93561023 -2.87023634 7.93561023 -4 6 C-3.34 5.566875 -2.68 5.13375 -2 4.6875 C-1.01 3.8521875 -1.01 3.8521875 0 3 C0 2.01 0 1.02 0 0 Z " fill="#B3A3EF" transform="translate(393,64)"/>
<path d="M0 0 C0 1.32 0 2.64 0 4 C1.2832557 5.9792785 1.2832557 5.9792785 3 7.75 C3.556875 8.36359375 4.11375 8.9771875 4.6875 9.609375 C5.120625 10.06828125 5.55375 10.5271875 6 11 C5.113125 10.67 4.22625 10.34 3.3125 10 C-1.0000169 8.69810811 -3.7376865 8.57922883 -8 10 C-13.00683966 8.25988302 -17.77745765 5.16690676 -22 2 C-22 1.34 -22 0.68 -22 0 C-14.56588188 -1.52494731 -7.43848839 -1.26612568 0 0 Z " fill="#7891E9" transform="translate(366,18)"/>
<path d="M0 0 C0.8125 2.625 0.8125 2.625 1 5 C0.01 5 -0.98 5 -2 5 C-1.67 6.093125 -1.34 7.18625 -1 8.3125 C0 12 0 12 0 15 C2.475 15.99 2.475 15.99 5 17 C4.54917531 18.46067199 4.08906463 19.91848032 3.625 21.375 C3.36976563 22.18710937 3.11453125 22.99921875 2.8515625 23.8359375 C2 26 2 26 0 28 C-2 25 -2 25 -2 22 C-2.66 22 -3.32 22 -4 22 C-4.33 21.01 -4.66 20.02 -5 19 C-5.99 19.33 -6.98 19.66 -8 20 C-7.21824485 15.15311808 -5.60155722 10.6233633 -4 6 C-4.804375 5.21625 -5.60875 4.4325 -6.4375 3.625 C-9 1 -9 1 -10 -1 C-6.02064869 -2.13695752 -3.58974296 -2.19373181 0 0 Z " fill="#7F90E2" transform="translate(366,28)"/>
<path d="M0 0 C12.07208257 -0.57083403 12.07208257 -0.57083403 16 3 C20.15101565 8.09981922 22 13.40445353 22 20 C17.38 20 12.76 20 8 20 C8.32552083 17.98177083 8.65104167 15.96354167 8.9765625 13.9453125 C8.98429688 13.30335937 8.99203125 12.66140625 9 12 C8.34 11.34 7.68 10.68 7 10 C7.7425 10.226875 8.485 10.45375 9.25 10.6875 C12.05914993 11.29476698 12.05914993 11.29476698 14.3125 9.5625 C14.869375 9.046875 15.42625 8.53125 16 8 C14.93221731 5.42444814 14.93221731 5.42444814 13 3 C10.08146296 2.25443268 10.08146296 2.25443268 6.875 2.3125 C4.91440695 2.26783421 2.95302402 2.17781263 1 2 C0.67 1.34 0.34 0.68 0 0 Z " fill="#D6AEEF" transform="translate(145,18)"/>
<path d="M0 0 C4.71403788 0.47939368 8.66579301 0.96834048 13 3 C12 5 12 5 9 7 C7.80767387 9.05003955 7.80767387 9.05003955 7 11 C7.680625 11.721875 8.36125 12.44375 9.0625 13.1875 C11 16 11 16 10.75 18.8125 C10.5025 19.534375 10.255 20.25625 10 21 C8.35 21 6.7 21 5 21 C5 21.66 5 22.32 5 23 C4.195625 22.835 3.39125 22.67 2.5625 22.5 C-1.65887352 21.90752652 -5.74664545 21.91493291 -10 22 C-6.27933528 19.51955685 -3.13459526 19.55618827 1.1875 19.375 C1.93708984 19.33632812 2.68667969 19.29765625 3.45898438 19.2578125 C5.30559199 19.16371784 7.1527619 19.08077681 9 19 C7.62580736 15.76035745 7.26562063 15.1300999 3.9375 13.5 C1 12 1 12 -0.0625 10 C0 8 0 8 1.4375 6.25 C2.2109375 5.63125 2.2109375 5.63125 3 5 C2.01 3.35 1.02 1.7 0 0 Z " fill="#CEADF7" transform="translate(143,53)"/>
<path d="M0 0 C5.1321316 -0.25903503 9.46944626 0.68712124 14.375 2 C15.47908203 2.28617188 15.47908203 2.28617188 16.60546875 2.578125 C18.40533622 3.04562304 20.20291548 3.52191576 22 4 C21.01 4.495 21.01 4.495 20 5 C19.67 5.99 19.34 6.98 19 8 C19 7.34 19 6.68 19 6 C15.88794071 7.98512949 15.88794071 7.98512949 14.25 11.1875 C14.1675 11.785625 14.085 12.38375 14 13 C14.66 13.33 15.32 13.66 16 14 C14.3954444 13.85851011 12.79136233 13.71164314 11.1875 13.5625 C10.29417969 13.48128906 9.40085937 13.40007813 8.48046875 13.31640625 C6 13 6 13 3 12 C3 11.34 3 10.68 3 10 C3.66 10 4.32 10 5 10 C5.33 9.01 5.66 8.02 6 7 C6.99 7 7.98 7 9 7 C8.49743888 4.98567734 8.49743888 4.98567734 7 3 C3.45411499 1.70079254 3.45411499 1.70079254 0 1 C0 0.67 0 0.34 0 0 Z " fill="#9093E2" transform="translate(104,43)"/>
<path d="M0 0 C1.05267563 0.02361099 2.10535126 0.04722198 3.18992615 0.07154846 C6.52130808 0.14754975 9.85241925 0.231844 13.18359375 0.31640625 C15.45506529 0.36969068 17.72654967 0.42243053 19.99804688 0.47460938 C25.5392266 0.60307783 31.08020845 0.73833847 36.62109375 0.87890625 C36.29109375 1.53890625 35.96109375 2.19890625 35.62109375 2.87890625 C17.80109375 2.87890625 -0.01890625 2.87890625 -18.37890625 2.87890625 C-17.05890625 4.52890625 -15.73890625 6.17890625 -14.37890625 7.87890625 C-15.69890625 7.87890625 -17.01890625 7.87890625 -18.37890625 7.87890625 C-19.83953475 5.23151709 -20.37890625 3.98442291 -20.37890625 0.87890625 C-13.51624058 -0.0404495 -6.91498939 -0.18629704 0 0 Z " fill="#6076BC" transform="translate(85.37890625,26.12109375)"/>
<path d="M0 0 C1.98 0.66 3.96 1.32 6 2 C6 1.34 6 0.68 6 0 C6.99854004 0.16371094 7.99708008 0.32742187 9.02587891 0.49609375 C12.89584432 1.04663987 16.67427514 1.09771817 20.5859375 1.0625 C21.28715729 1.05871338 21.98837708 1.05492676 22.71084595 1.05102539 C25.67612214 1.03486742 28.64125364 1.0067434 31.60644531 0.97949219 C39.46934978 0.91359224 47.19601947 0.87256263 55 2 C55 2.33 55 2.66 55 3 C49.29967405 3.78636367 43.68289338 4.23171615 37.93359375 4.421875 C36.67700706 4.46371918 36.67700706 4.46371918 35.39503479 4.50640869 C33.63623183 4.56242616 31.87735227 4.61608433 30.1184082 4.66748047 C28.32911309 4.72255576 26.54002305 4.78474736 24.7512207 4.85400391 C22.14559868 4.95479889 19.54007194 5.03440093 16.93359375 5.109375 C15.74581581 5.16070587 15.74581581 5.16070587 14.53404236 5.21307373 C9.25183051 5.33223382 5.67494959 4.51812807 1 2 C0.67 1.34 0.34 0.68 0 0 Z " fill="#4F80D8" transform="translate(57,79)"/>
<path d="M0 0 C0.12375 0.78375 0.2475 1.5675 0.375 2.375 C0.79117993 5.14057822 0.79117993 5.14057822 3 7 C-3.93 7 -10.86 7 -18 7 C-18.33 6.01 -18.66 5.02 -19 4 C-16.8648444 0.79726661 -15.78552168 0.21053625 -12.15234375 -0.7265625 C-8.06874649 -1.24534981 -4.04847985 -0.60279177 0 0 Z " fill="#C2A5EC" transform="translate(283,23)"/>
<path d="M0 0 C4.62 0 9.24 0 14 0 C14.33 0.99 14.66 1.98 15 3 C14.525625 3.391875 14.05125 3.78375 13.5625 4.1875 C11.64820367 6.40808374 11.38733012 8.13375709 11 11 C10.34 11 9.68 11 9 11 C9 11.99 9 12.98 9 14 C8.34 14 7.68 14 7 14 C5.81640625 12.35546875 5.81640625 12.35546875 4.5625 10.1875 C2.94616437 7.40578131 1.36770973 5.18823319 -1 3 C-0.67 2.01 -0.34 1.02 0 0 Z " fill="#3077DC" transform="translate(307,17)"/>
<path d="M0 0 C7.09406894 0.58476056 14.01563899 1.63233995 21 3 C21 4.65 21 6.3 21 8 C20.34 8 19.68 8 19 8 C18.67 8.66 18.34 9.32 18 10 C17.05125 9.690625 16.1025 9.38125 15.125 9.0625 C10.49061575 7.72071729 5.79447959 7.36657993 1 7 C1.99 5.35 2.98 3.7 4 2 C2.68 1.67 1.36 1.34 0 1 C0 0.67 0 0.34 0 0 Z " fill="#6282DF" transform="translate(203,38)"/>
<path d="M0 0 C2.84375 0.7109375 2.84375 0.7109375 5.6875 1.421875 C6.450625 1.61265625 7.21375 1.8034375 8 2 C9.5 2.375 11 2.75 12.5 3.125 C13.655 3.41375 14.81 3.7025 16 4 C15.01 4.99 14.02 5.98 13 7 C15.96178773 8.67110042 18.37071192 9.32682752 21.75 9.625 C22.54921875 9.69976562 23.3484375 9.77453125 24.171875 9.8515625 C24.77515625 9.90054688 25.3784375 9.94953125 26 10 C26 10.33 26 10.66 26 11 C15.53632024 11.48542844 7.23212863 10.10196582 -2 5 C-1.34 3.35 -0.68 1.7 0 0 Z " fill="#A99EE9" transform="translate(256,49)"/>
<path d="M0 0 C3.3 0.33 6.6 0.66 10 1 C9.67 5.29 9.34 9.58 9 14 C7.35 14.33 5.7 14.66 4 15 C0.36926776 10.2642623 0.38520516 5.77807738 0 0 Z " fill="#327DE1" transform="translate(53,64)"/>
<path d="M0 0 C0.5775 0.21914063 1.155 0.43828125 1.75 0.6640625 C1.75 1.3240625 1.75 1.9840625 1.75 2.6640625 C3.73 2.3340625 5.71 2.0040625 7.75 1.6640625 C3.95307485 4.19534594 0.71049664 4.34894074 -3.75390625 4.90625 C-6.3436107 5.41997694 -6.3436107 5.41997694 -7.55078125 7.4375 C-8.29198456 9.79775636 -8.65765474 11.9508162 -8.875 14.4140625 C-8.94976562 15.21328125 -9.02453125 16.0125 -9.1015625 16.8359375 C-9.15054688 17.43921875 -9.19953125 18.0425 -9.25 18.6640625 C-11.1875 19.2265625 -11.1875 19.2265625 -13.25 19.6640625 C-14.25 18.6640625 -14.25 18.6640625 -14.5625 14.9140625 C-14.50339891 11.89453432 -14.29227442 10.73804274 -12.75 8.0390625 C-3.70546431 -0.55324641 -3.70546431 -0.55324641 0 0 Z " fill="#999BF2" transform="translate(263.25,27.3359375)"/>
<path d="M0 0 C0.67224609 -0.01998047 1.34449219 -0.03996094 2.03710938 -0.06054688 C5.31938918 -0.05728741 6.9979125 0.0118954 9.40234375 2.33984375 C10.4375 4.4375 10.4375 4.4375 10.4375 6.4375 C3.46555088 7.5783644 -3.17143322 8.16763611 -9.625 4.875 C-10.264375 4.400625 -10.90375 3.92625 -11.5625 3.4375 C-7.95749091 -0.03842948 -4.88231599 0.00477255 0 0 Z " fill="#C8AAF3" transform="translate(279.5625,52.5625)"/>
<path d="M0 0 C4.13639336 1.59092052 7.23213248 4.60474918 10 8 C10 8.66 10 9.32 10 10 C10.66 10 11.32 10 12 10 C12.66 11.65 13.32 13.3 14 15 C12.68 14.01 11.36 13.02 10 12 C9.34 13.65 8.68 15.3 8 17 C7.34 17 6.68 17 6 17 C6.33 18.65 6.66 20.3 7 22 C4.66475218 19.74259377 2.81294927 17.7194239 1 15 C0.01 15.495 0.01 15.495 -1 16 C-1 15.01 -1 14.02 -1 13 C0.65532623 11.98133771 2.32260138 10.98189187 4 10 C4.33 9.01 4.66 8.02 5 7 C3.39881603 4.94720004 1.73223664 2.94348501 0 1 C0 0.67 0 0.34 0 0 Z " fill="#9697E5" transform="translate(372,30)"/>
<path d="M0 0 C3.5 0.125 3.5 0.125 4.5 1.125 C4.54063832 2.79117115 4.542721 4.45888095 4.5 6.125 C4.17 4.805 3.84 3.485 3.5 2.125 C1.52 2.455 -0.46 2.785 -2.5 3.125 C-2.83 13.685 -3.16 24.245 -3.5 35.125 C-1.19 35.125 1.12 35.125 3.5 35.125 C3.17 34.465 2.84 33.805 2.5 33.125 C2.40465746 31.4396804 2.37014242 29.75050734 2.375 28.0625 C2.37242187 27.16402344 2.36984375 26.26554687 2.3671875 25.33984375 C2.5 23.125 2.5 23.125 3.5 22.125 C4.84267413 22.03868126 6.18974322 22.01793527 7.53515625 22.02734375 C8.34404297 22.03056641 9.15292969 22.03378906 9.98632812 22.03710938 C10.83646484 22.04548828 11.68660156 22.05386719 12.5625 22.0625 C13.41650391 22.06701172 14.27050781 22.07152344 15.15039062 22.07617188 C17.26695663 22.08799627 19.38348685 22.10593231 21.5 22.125 C21.5 22.455 21.5 22.785 21.5 23.125 C19.91058594 23.21587891 19.91058594 23.21587891 18.2890625 23.30859375 C16.90102779 23.39300127 15.51300768 23.47764917 14.125 23.5625 C13.07699219 23.62147461 13.07699219 23.62147461 12.0078125 23.68164062 C8.12639508 23.86780134 8.12639508 23.86780134 4.5 25.125 C4.5 28.755 4.5 32.385 4.5 36.125 C1.53 36.125 -1.44 36.125 -4.5 36.125 C-4.52465098 31.15877651 -4.54283649 26.19258834 -4.55493164 21.22631836 C-4.5599719 19.53555684 -4.56680405 17.84479971 -4.57543945 16.15405273 C-4.58751857 13.72899293 -4.59323123 11.30399056 -4.59765625 8.87890625 C-4.60281754 8.11848526 -4.60797882 7.35806427 -4.61329651 6.57460022 C-4.61349238 4.7576743 -4.56197277 2.94086873 -4.5 1.125 C-3.5 0.125 -3.5 0.125 0 0 Z " fill="#3A64B4" transform="translate(186.5,22.875)"/>
<path d="M0 0 C1.65 0 3.3 0 5 0 C5.33 1.32 5.66 2.64 6 4 C7.32 4.33 8.64 4.66 10 5 C10 5.66 10 6.32 10 7 C7.03 6.505 7.03 6.505 4 6 C4 9.63 4 13.26 4 17 C2.68 17 1.36 17 0 17 C0 11.39 0 5.78 0 0 Z " fill="#7C8DDD" transform="translate(226,75)"/>
<path d="M0 0 C1.65 0 3.3 0 5 0 C5.33 0.99 5.66 1.98 6 3 C5.34 3 4.68 3 4 3 C4 6.96 4 10.92 4 15 C1.36 15 -1.28 15 -4 15 C-4.37239784 8.42097147 -4.37239784 8.42097147 -2.5625 6.375 C-2.046875 5.92125 -1.53125 5.4675 -1 5 C-0.27802838 2.39388923 -0.27802838 2.39388923 0 0 Z " fill="#BFA6F8" transform="translate(404,68)"/>
<path d="M0 0 C0 0.33 0 0.66 0 1 C-2.97 1.66 -5.94 2.32 -9 3 C-9 3.66 -9 4.32 -9 5 C-7.68 5.66 -6.36 6.32 -5 7 C-5.33 7.99 -5.66 8.98 -6 10 C-8.64 9.67 -11.28 9.34 -14 9 C-14 8.34 -14 7.68 -14 7 C-14.66 7 -15.32 7 -16 7 C-16 5.35 -16 3.7 -16 2 C-10.48351346 -1.62926746 -6.21369499 -1.01924246 0 0 Z " fill="#A29CEC" transform="translate(134,49)"/>
<path d="M0 0 C1.32 0 2.64 0 4 0 C4 7.26 4 14.52 4 22 C3.01 22 2.02 22 1 22 C-0.20029908 19.59940183 -0.11459743 18.10639351 -0.09765625 15.4296875 C-0.09443359 14.53378906 -0.09121094 13.63789062 -0.08789062 12.71484375 C-0.07951172 11.77769531 -0.07113281 10.84054688 -0.0625 9.875 C-0.05798828 8.93011719 -0.05347656 7.98523437 -0.04882812 7.01171875 C-0.03702357 4.67441613 -0.02055759 2.33723939 0 0 Z " fill="#7D93EC" transform="translate(233,25)"/>
<path d="M0 0 C2.97 0.495 2.97 0.495 6 1 C6 1.66 6 2.32 6 3 C8.475 3.99 8.475 3.99 11 5 C10.34 6.65 9.68 8.3 9 10 C6.69 9.67 4.38 9.34 2 9 C2 8.34 2 7.68 2 7 C0.02 7 -1.96 7 -4 7 C-4 6.01 -4 5.02 -4 4 C-3.01 4 -2.02 4 -1 4 C-0.67 2.68 -0.34 1.36 0 0 Z " fill="#5688E7" transform="translate(76,38)"/>
<path d="M0 0 C8.91 0 17.82 0 27 0 C27 0.99 27 1.98 27 3 C19.4568898 4.25718503 12.5431102 4.25718503 5 3 C4.67 3.66 4.34 4.32 4 5 C2 3.625 2 3.625 0 2 C0 1.34 0 0.68 0 0 Z " fill="#4977D1" transform="translate(66,72)"/>
<path d="M0 0 C1.65 0 3.3 0 5 0 C5 5.61 5 11.22 5 17 C4.01 17.33 3.02 17.66 2 18 C1.34 17.67 0.68 17.34 0 17 C0 14.69 0 12.38 0 10 C-0.66 10 -1.32 10 -2 10 C-1.54177532 6.53058454 -1.10868317 3.32604951 0 0 Z " fill="#B4A7F8" transform="translate(251,75)"/>
<path d="M0 0 C-0.33 0.66 -0.66 1.32 -1 2 C-3.97 2 -6.94 2 -10 2 C-10.1490712 4.0745356 -10.1490712 4.0745356 -9 6 C-11 6.8125 -11 6.8125 -14 7 C-16.90013359 5.65982736 -19.55286745 4.05850604 -22 2 C-22 1.34 -22 0.68 -22 0 C-14.56588188 -1.52494731 -7.43848839 -1.26612568 0 0 Z " fill="#6C7FCE" transform="translate(366,18)"/>
<path d="M0 0 C0.75042068 0.0028299 1.50084137 0.00565979 2.27400208 0.00857544 C4.668508 0.01976188 7.06263856 0.04486322 9.45703125 0.0703125 C11.0813748 0.08034431 12.70572422 0.08946981 14.33007812 0.09765625 C18.31004025 0.11969613 22.28972213 0.1542151 26.26953125 0.1953125 C26.26953125 0.8553125 26.26953125 1.5153125 26.26953125 2.1953125 C22.28627713 2.36447805 18.30277016 2.52485136 14.31884766 2.67749023 C12.30613257 2.75637792 10.29368481 2.84199401 8.28125 2.92773438 C1.8069028 3.17174244 -4.33639628 3.29633263 -10.73046875 2.1953125 C-7.03888557 -0.26574295 -4.26423321 -0.06044543 0 0 Z " fill="#5675C3" transform="translate(69.73046875,16.8046875)"/>
<path d="M0 0 C6.6 0 13.2 0 20 0 C19.67 4.95 19.34 9.9 19 15 C18.34 15 17.68 15 17 15 C16.67 11.04 16.34 7.08 16 3 C10.72 2.67 5.44 2.34 0 2 C0 1.34 0 0.68 0 0 Z " fill="#447CDD" transform="translate(190,76)"/>
<path d="M0 0 C3.84505643 1.28168548 4.21363291 2.42726581 6 6 C8.18373898 11.6153288 8.00846753 14.53250506 6 20 C2 15.375 2 15.375 2 12 C2.66 11.67 3.32 11.34 4 11 C3.34 9.68 2.68 8.36 2 7 C1.01 7.66 0.02 8.32 -1 9 C-1.125 2.25 -1.125 2.25 0 0 Z " fill="#5287E8" transform="translate(333,50)"/>
<path d="M0 0 C1.33037392 3.02986892 0.91937642 4.24379689 -0.14453125 7.4609375 C-0.68924563 8.77037255 -1.2456641 10.0749881 -1.8125 11.375 C-2.36228984 12.67379765 -2.91048902 13.97326989 -3.45703125 15.2734375 C-3.72080566 15.89702148 -3.98458008 16.52060547 -4.25634766 17.16308594 C-5.29760782 19.73512844 -6.16100501 22.35614261 -7 25 C-7.33 25 -7.66 25 -8 25 C-7.55761615 17.46783285 -6.86094772 10.3197277 -5 3 C-4.01 3 -3.02 3 -2 3 C-1.34 2.01 -0.68 1.02 0 0 Z " fill="#C1A8EB" transform="translate(415,57)"/>
<path d="M0 0 C0.33 0.66 0.66 1.32 1 2 C-1 4 -1 4 -3.41430664 4.07519531 C-4.40293701 3.99366211 -5.39156738 3.91212891 -6.41015625 3.828125 C-7.48201172 3.74046875 -8.55386719 3.6528125 -9.65820312 3.5625 C-10.78162109 3.459375 -11.90503906 3.35625 -13.0625 3.25 C-14.18978516 3.16234375 -15.31707031 3.0746875 -16.47851562 2.984375 C-22.70279747 2.44476237 -22.70279747 2.44476237 -25 2 C-25.33 1.34 -25.66 0.68 -26 0 C-17.33868232 -1.17044834 -8.65859873 -1.29992018 0 0 Z " fill="#E6B7F1" transform="translate(287,76)"/>
<path d="M0 0 C0.33 0.66 0.66 1.32 1 2 C4.02934491 2.65772428 4.02934491 2.65772428 7 3 C7.33 3.99 7.66 4.98 8 6 C7.67 6.66 7.34 7.32 7 8 C7.66 8 8.32 8 9 8 C9 8.66 9 9.32 9 10 C2.6 11.23076923 2.6 11.23076923 -0.4375 10.0625 C-0.953125 9.711875 -1.46875 9.36125 -2 9 C-1.34 8.34 -0.68 7.68 0 7 C-0.28674418 4.99279077 -0.61866701 2.9914056 -1 1 C-0.67 0.67 -0.34 0.34 0 0 Z " fill="#4483E8" transform="translate(66,32)"/>
<path d="M0 0 C1.4540625 0.0309375 1.4540625 0.0309375 2.9375 0.0625 C3.31968767 1.71864657 3.65145102 3.38707024 3.9375 5.0625 C3.6075 5.3925 3.2775 5.7225 2.9375 6.0625 C2.56989269 8.39067964 2.23508419 10.7243385 1.9375 13.0625 C1.6075 13.0625 1.2775 13.0625 0.9375 13.0625 C0.9375 9.4325 0.9375 5.8025 0.9375 2.0625 C-1.71488708 8.20636712 -2.57097148 13.40263892 -2.75 20.0625 C-2.78416016 20.93261719 -2.81832031 21.80273438 -2.85351562 22.69921875 C-2.93507983 24.81988815 -3.00048528 26.94116891 -3.0625 29.0625 C-3.3925 29.0625 -3.7225 29.0625 -4.0625 29.0625 C-4.08715881 25.09319011 -4.10534023 21.12390966 -4.11743164 17.15454102 C-4.12247057 15.80329614 -4.12930177 14.45205674 -4.13793945 13.10083008 C-4.15002419 11.16229566 -4.15519828 9.223722 -4.16015625 7.28515625 C-4.16539307 6.11734619 -4.17062988 4.94953613 -4.17602539 3.74633789 C-4.01402051 -0.08359679 -3.88466316 0.07927884 0 0 Z " fill="#2971D6" transform="translate(187.0625,24.9375)"/>
<path d="M0 0 C-1.26941497 3.91402949 -2.51167694 5.79072873 -6 8 C-4.125 3.125 -4.125 3.125 -3 2 C-7.95 2 -12.9 2 -18 2 C-17.938125 3.8253125 -17.938125 3.8253125 -17.875 5.6875 C-17.86245492 9.21894127 -18.40001783 11.80003566 -20 15 C-20.66 15 -21.32 15 -22 15 C-21.34 11.04 -20.68 7.08 -20 3 C-20.66 2.67 -21.32 2.34 -22 2 C-22 1.34 -22 0.68 -22 0 C-19.27119539 -0.19555932 -16.54228931 -0.38170447 -13.8125 -0.5625 C-13.04357422 -0.61857422 -12.27464844 -0.67464844 -11.48242188 -0.73242188 C-7.45938647 -0.99141557 -3.93927628 -1.06573607 0 0 Z " fill="#C9A3D5" transform="translate(435,18)"/>
<path d="M0 0 C4.95 0 9.9 0 15 0 C15 0.33 15 0.66 15 1 C10.38 1 5.76 1 1 1 C1 1.66 1 2.32 1 3 C2.14339844 2.98839844 3.28679687 2.97679688 4.46484375 2.96484375 C5.95572754 2.95546712 7.44661309 2.94636679 8.9375 2.9375 C10.06961914 2.92493164 10.06961914 2.92493164 11.22460938 2.91210938 C13.14994313 2.90347559 15.07535581 2.94775667 17 3 C18 4 18 4 18.09765625 6.72265625 C18.08605469 7.82480469 18.07445312 8.92695312 18.0625 10.0625 C18.05347656 11.16722656 18.04445312 12.27195312 18.03515625 13.41015625 C18.02355469 14.26480469 18.01195312 15.11945313 18 16 C18.66 16 19.32 16 20 16 C20 13.36 20 10.72 20 8 C20.33 8 20.66 8 21 8 C21 10.97 21 13.94 21 17 C19.68 17.33 18.36 17.66 17 18 C15.07427479 14.14854957 15.95116782 9.19956748 16 5 C10.72 4.67 5.44 4.34 0 4 C0 2.68 0 1.36 0 0 Z " fill="#526CC0" transform="translate(189,75)"/>
<path d="M0 0 C0.33 1.32 0.66 2.64 1 4 C1.66 4 2.32 4 3 4 C3.66 5.98 4.32 7.96 5 10 C4.05125 10.103125 3.1025 10.20625 2.125 10.3125 C-1.29107501 10.68539295 -1.29107501 10.68539295 -3 14 C-3.66 14 -4.32 14 -5 14 C-5 12 -5 10 -5 8 C-4.34 8 -3.68 8 -3 8 C-3.061875 7.05125 -3.12375 6.1025 -3.1875 5.125 C-3.125625 4.09375 -3.06375 3.0625 -3 2 C-2.01 1.34 -1.02 0.68 0 0 Z " fill="#7792F0" transform="translate(361,46)"/>
<path d="M0 0 C0.33 0.66 0.66 1.32 1 2 C3.52397015 2.25947357 5.96966776 2.42107221 8.5 2.5 C11.03033224 2.57892779 13.47602985 2.74052643 16 3 C16.33 3.66 16.66 4.32 17 5 C8.83382806 5.84388104 1.15002924 6.06162705 -7 5 C-7.33 5.66 -7.66 6.32 -8 7 C-8 6.34 -8 5.68 -8 5 C-8.66 4.67 -9.32 4.34 -10 4 C-6.7 3.67 -3.4 3.34 0 3 C0 2.01 0 1.02 0 0 Z " fill="#D4B7F5" transform="translate(270,87)"/>
<path d="M0 0 C0 0.33 0 0.66 0 1 C-7.96649849 2.3173767 -15.95194375 2.11089426 -24 2.0625 C-25.45702971 2.05747576 -26.9140611 2.05291449 -28.37109375 2.04882812 C-31.9140977 2.03789388 -35.45703797 2.02068 -39 2 C-39 1.67 -39 1.34 -39 1 C-25.88334463 -0.3313837 -13.13864424 -1.55810845 0 0 Z " fill="#7B8AD8" transform="translate(112,81)"/>
<path d="M0 0 C0.66 0 1.32 0 2 0 C1 3 1 3 -1.3515625 4.70703125 C-6.48119541 6.52492043 -11.00511062 6.07898226 -16.375 5.6875 C-17.90833984 5.5956543 -17.90833984 5.5956543 -19.47265625 5.50195312 C-21.98309526 5.34944982 -24.49153515 5.18172208 -27 5 C-26.67 4.34 -26.34 3.68 -26 3 C-25.21625 3.020625 -24.4325 3.04125 -23.625 3.0625 C-21.01885039 3.18684063 -21.01885039 3.18684063 -19 2 C-17.2984375 2.2475 -17.2984375 2.2475 -15.5625 2.5 C-12.04687076 3.26285394 -12.04687076 3.26285394 -9 2 C-8.34 2.66 -7.68 3.32 -7 4 C-6.21625 3.484375 -5.4325 2.96875 -4.625 2.4375 C-3.325625 1.7259375 -3.325625 1.7259375 -2 1 C-1.34 1.33 -0.68 1.66 0 2 C0 1.34 0 0.68 0 0 Z " fill="#D5AFEE" transform="translate(163,78)"/>
<path d="M0 0 C0.33 0.66 0.66 1.32 1 2 C-9.56 2 -20.12 2 -31 2 C-31 1.67 -31 1.34 -31 1 C-24.62063002 -0.0206992 -18.43296218 -0.04810214 -11.9765625 0.0625 C-0.85510689 -0.17102138 -0.85510689 -0.17102138 0 0 Z " fill="#9C98E0" transform="translate(135,81)"/>
<path d="M0 0 C2.09383797 2.64551454 3.6764185 5.17592288 5.04296875 8.2578125 C5.39423828 9.04800781 5.74550781 9.83820312 6.10742188 10.65234375 C6.64206055 11.87630859 6.64206055 11.87630859 7.1875 13.125 C7.73954102 14.36056641 7.73954102 14.36056641 8.30273438 15.62109375 C11 21.73623029 11 21.73623029 11 24 C11.66 24 12.32 24 13 24 C13.33 22.68 13.66 21.36 14 20 C14.33 20.66 14.66 21.32 15 22 C14.0625 24.125 14.0625 24.125 13 26 C8.42074667 24.47358222 7.57845294 20.98597413 5.42578125 16.8515625 C2.60545579 11.21091159 0.65127609 6.38250571 0 0 Z " fill="#637AD0" transform="translate(335,46)"/>
<path d="M0 0 C-0.66 1.98 -1.32 3.96 -2 6 C-8.75 7 -8.75 7 -11 7 C-11.33 6.01 -11.66 5.02 -12 4 C-10 1 -10 1 -8.25 0.3125 C-5.48083033 -0.0721069 -2.79197653 -0.06345401 0 0 Z " fill="#B7A4EF" transform="translate(276,23)"/>
<path d="M0 0 C0 0.99 0 1.98 0 3 C-0.66 3 -1.32 3 -2 3 C-2.33 4.32 -2.66 5.64 -3 7 C-3 5.35 -3 3.7 -3 2 C-6.3 1.67 -9.6 1.34 -13 1 C-12.7834375 1.83144531 -12.566875 2.66289063 -12.34375 3.51953125 C-12.0653125 4.60621094 -11.786875 5.69289063 -11.5 6.8125 C-11.2215625 7.89144531 -10.943125 8.97039062 -10.65625 10.08203125 C-10 13 -10 13 -10 16 C-13.02150425 12.847126 -13.44606103 10.18135128 -13.7890625 6 C-14.00767174 3.92726051 -14.4529929 2.00868182 -15 0 C-12.87562788 -0.19448477 -10.75046809 -0.38038289 -8.625 -0.5625 C-7.44164062 -0.66691406 -6.25828125 -0.77132812 -5.0390625 -0.87890625 C-2 -1 -2 -1 0 0 Z " fill="#4371BC" transform="translate(66,63)"/>
<path d="M0 0 C7.88416983 1.35258896 15.39353334 3.54399352 23 6 C23 6.33 23 6.66 23 7 C15 7.26666667 15 7.26666667 11 5 C9.00889599 4.61709538 7.00899487 4.27395385 5 4 C5 4.66 5 5.32 5 6 C4.01 6 3.02 6 2 6 C2 4.68 2 3.36 2 2 C1.34 1.34 0.68 0.68 0 0 Z " fill="#5680D0" transform="translate(71,34)"/>
<path d="M0 0 C3.1837982 3.59461087 4.01574101 5.07870506 5 10 C9.95 10.33 14.9 10.66 20 11 C20 9.02 20 7.04 20 5 C20.66 5.33 21.32 5.66 22 6 C22.33 7.98 22.66 9.96 23 12 C16.07 12 9.14 12 2 12 C0.78306124 9.56612247 0.68040104 7.58161154 0.4375 4.875 C0.35371094 3.96492188 0.26992188 3.05484375 0.18359375 2.1171875 C0.12300781 1.41851562 0.06242187 0.71984375 0 0 Z " fill="#7585D2" transform="translate(335,72)"/>
<path d="M0 0 C0.56203125 0.23589844 1.1240625 0.47179687 1.703125 0.71484375 C1.703125 1.37484375 1.703125 2.03484375 1.703125 2.71484375 C3.683125 2.38484375 5.663125 2.05484375 7.703125 1.71484375 C4.55738823 3.8120016 2.68856249 4.23488934 -0.984375 4.83984375 C-1.97824219 5.00742187 -2.97210938 5.175 -3.99609375 5.34765625 C-4.75535156 5.46882813 -5.51460938 5.59 -6.296875 5.71484375 C-6.626875 6.70484375 -6.956875 7.69484375 -7.296875 8.71484375 C-8.616875 8.05484375 -9.936875 7.39484375 -11.296875 6.71484375 C-9.89314698 5.5120768 -8.47335403 4.32803856 -7.046875 3.15234375 C-6.25796875 2.49105469 -5.4690625 1.82976563 -4.65625 1.1484375 C-2.296875 -0.28515625 -2.296875 -0.28515625 0 0 Z " fill="#A79EEF" transform="translate(263.296875,27.28515625)"/>
<path d="M0 0 C2.64 0 5.28 0 8 0 C6.515 1.485 6.515 1.485 5 3 C7.96178773 4.67110042 10.37071192 5.32682752 13.75 5.625 C14.94882812 5.73714844 14.94882812 5.73714844 16.171875 5.8515625 C16.77515625 5.90054688 17.3784375 5.94953125 18 6 C18 6.33 18 6.66 18 7 C16.08364783 7.05423638 14.16685075 7.09289963 12.25 7.125 C10.64898437 7.15980469 10.64898437 7.15980469 9.015625 7.1953125 C6.07529894 7.00487687 4.47638122 6.52670104 2 5 C2 4.34 2 3.68 2 3 C1.01 2.67 0.02 2.34 -1 2 C-0.67 1.34 -0.34 0.68 0 0 Z " fill="#B6A1EC" transform="translate(264,53)"/>
<path d="M0 0 C2.24993359 -0.02707139 4.49996095 -0.04642829 6.75 -0.0625 C8.00296875 -0.07410156 9.2559375 -0.08570312 10.546875 -0.09765625 C13.28536501 -0.02021027 15.41880293 0.17219185 18 1 C18 1.66 18 2.32 18 3 C14.0186217 4.3271261 10.14954773 4.06915913 6 4 C6 3.01 6 2.02 6 1 C4.02 1 2.04 1 0 1 C0 0.67 0 0.34 0 0 Z " fill="#6379CF" transform="translate(204,75)"/>
<path d="M0 0 C0.74886475 0.00523682 1.49772949 0.01047363 2.26928711 0.01586914 C3.07817383 0.0190918 3.88706055 0.02231445 4.72045898 0.02563477 C5.5705957 0.03401367 6.42073242 0.04239258 7.29663086 0.05102539 C8.15063477 0.05553711 9.00463867 0.06004883 9.88452148 0.06469727 C12.00108749 0.07652166 14.11761771 0.0944577 16.23413086 0.11352539 C16.23413086 0.44352539 16.23413086 0.77352539 16.23413086 1.11352539 C14.6447168 1.2044043 14.6447168 1.2044043 13.02319336 1.29711914 C11.63515865 1.38152666 10.24713854 1.46617456 8.85913086 1.55102539 C8.16045898 1.5903418 7.46178711 1.6296582 6.74194336 1.67016602 C2.86052594 1.85632673 2.86052594 1.85632673 -0.76586914 3.11352539 C-0.76586914 6.74352539 -0.76586914 10.37352539 -0.76586914 14.11352539 C-3.40586914 14.11352539 -6.04586914 14.11352539 -8.76586914 14.11352539 C-8.76586914 13.78352539 -8.76586914 13.45352539 -8.76586914 13.11352539 C-6.45586914 13.11352539 -4.14586914 13.11352539 -1.76586914 13.11352539 C-2.09586914 12.45352539 -2.42586914 11.79352539 -2.76586914 11.11352539 C-2.86121168 9.42820579 -2.89572672 7.73903273 -2.89086914 6.05102539 C-2.89344727 5.15254883 -2.89602539 4.25407227 -2.89868164 3.32836914 C-2.73797452 0.64834162 -2.68998897 0.17293583 0 0 Z " fill="#4D73CA" transform="translate(191.765869140625,44.886474609375)"/>
<path d="M0 0 C1.32 0.66 2.64 1.32 4 2 C3.67 3.65 3.34 5.3 3 7 C1.35 7 -0.3 7 -2 7 C-2 7.66 -2 8.32 -2 9 C-2.804375 8.835 -3.60875 8.67 -4.4375 8.5 C-8.65887352 7.90752652 -12.74664545 7.91493291 -17 8 C-13.27933528 5.51955685 -10.13459526 5.55618827 -5.8125 5.375 C-5.06291016 5.33632812 -4.31332031 5.29765625 -3.54101562 5.2578125 C-1.69440801 5.16371784 0.1527619 5.08077681 2 5 C1.34 3.35 0.68 1.7 0 0 Z " fill="#BB9FE1" transform="translate(150,67)"/>
<path d="M0 0 C4.32001266 0.48000141 6.27322191 1.61503409 9 5 C10.25 7.75 10.25 7.75 11 10 C10.01 10.33 9.02 10.66 8 11 C7.731875 10.360625 7.46375 9.72125 7.1875 9.0625 C6.11332248 6.66868314 6.11332248 6.66868314 3 6 C3 5.01 3 4.02 3 3 C2.01 2.67 1.02 2.34 0 2 C0 1.34 0 0.68 0 0 Z " fill="#9390E5" transform="translate(232,77)"/>
<path d="M0 0 C1.125 3.75 1.125 3.75 0 6 C4.455 5.505 4.455 5.505 9 5 C8.67 5.99 8.34 6.98 8 8 C5.87465341 7.85930804 3.74972471 7.71229079 1.625 7.5625 C0.44164062 7.48128906 -0.74171875 7.40007812 -1.9609375 7.31640625 C-5 7 -5 7 -7 6 C-7 5.34 -7 4.68 -7 4 C-3.535 3.505 -3.535 3.505 0 3 C0 2.01 0 1.02 0 0 Z " fill="#C298D5" transform="translate(278,83)"/>
<path d="M0 0 C4.29 0 8.58 0 13 0 C12.67 0.99 12.34 1.98 12 3 C11.34 3 10.68 3 10 3 C10 3.66 10 4.32 10 5 C8.68 4.67 7.36 4.34 6 4 C6 3.34 6 2.68 6 2 C4.35 2 2.7 2 1 2 C0.67 2.66 0.34 3.32 0 4 C0 2.68 0 1.36 0 0 Z " fill="#3D72C0" transform="translate(307,17)"/>
<path d="M0 0 C2 2 2 2 2 5 C2.66 5.33 3.32 5.66 4 6 C2.375 6.75 2.375 6.75 0 7 C-3.25 5.1875 -3.25 5.1875 -6 3 C-6 2.34 -6 1.68 -6 1 C-3.125 0.375 -3.125 0.375 0 0 Z " fill="#698AD7" transform="translate(350,17)"/>
<path d="M0 0 C0.66 0 1.32 0 2 0 C2.0825 1.216875 2.165 2.43375 2.25 3.6875 C2.75997817 7.796467 3.97622391 10.0651585 7 13 C7.99 13.33 8.98 13.66 10 14 C10 14.66 10 15.32 10 16 C5.57258356 14.64717831 3.63690779 12.76701112 1 9 C-0.4783226 6.04335481 -0.06032783 3.25770263 0 0 Z " fill="#4372BC" transform="translate(53,27)"/>
<path d="M0 0 C0.33 0 0.66 0 1 0 C2.19287411 3.87684087 3 6.91621923 3 11 C2.01 11.33 1.02 11.66 0 12 C-0.66 11.67 -1.32 11.34 -2 11 C-2.05399736 9.54207116 -2.09279177 8.08357288 -2.125 6.625 C-2.15980469 5.40683594 -2.15980469 5.40683594 -2.1953125 4.1640625 C-2 2 -2 2 0 0 Z " fill="#C3A6F6" transform="translate(253,81)"/>
<path d="M0 0 C-1.77444972 2.24606427 -2.58352485 2.95081002 -5.48046875 3.29296875 C-6.82044922 3.24076172 -6.82044922 3.24076172 -8.1875 3.1875 C-9.53908203 3.14689453 -9.53908203 3.14689453 -10.91796875 3.10546875 C-11.60503906 3.07066406 -12.29210937 3.03585938 -13 3 C-13 2.01 -13 1.02 -13 0 C-4.57142857 -1.28571429 -4.57142857 -1.28571429 0 0 Z " fill="#617ED3" transform="translate(94,73)"/>
<path d="M0 0 C4.71403788 0.47939368 8.66579301 0.96834048 13 3 C12.67 3.66 12.34 4.32 12 5 C11.01 4.67 10.02 4.34 9 4 C8.67 4.33 8.34 4.66 8 5 C5.0625 4.8125 5.0625 4.8125 2 4 C0.625 1.9375 0.625 1.9375 0 0 Z " fill="#C7A7EA" transform="translate(143,53)"/>
<path d="M0 0 C2.64 0.66 5.28 1.32 8 2 C7.01 3.485 7.01 3.485 6 5 C3.8359375 5.29296875 3.8359375 5.29296875 1.375 5.1875 C0.55773437 5.16042969 -0.25953125 5.13335937 -1.1015625 5.10546875 C-2.04128906 5.05326172 -2.04128906 5.05326172 -3 5 C-2.01 3.35 -1.02 1.7 0 0 Z " fill="#5087E7" transform="translate(207,40)"/>
<path d="M0 0 C-1.32 0.33 -2.64 0.66 -4 1 C-4 1.66 -4 2.32 -4 3 C-7.96 3 -11.92 3 -16 3 C-16.33 2.34 -16.66 1.68 -17 1 C-5.47835991 -0.14806378 -5.47835991 -0.14806378 0 0 Z " fill="#D8AFF1" transform="translate(278,75)"/>
<path d="M0 0 C2.64 0 5.28 0 8 0 C8 0.66 8 1.32 8 2 C8.94875 1.79375 9.8975 1.5875 10.875 1.375 C12.421875 1.189375 12.421875 1.189375 14 1 C14.66 1.66 15.32 2.32 16 3 C15.34 3 14.68 3 14 3 C13.67 3.66 13.34 4.32 13 5 C8.71 3.68 4.42 2.36 0 1 C0 0.67 0 0.34 0 0 Z " fill="#5079CF" transform="translate(64,43)"/>
<path d="M0 0 C0.90105469 0.00902344 1.80210937 0.01804687 2.73046875 0.02734375 C3.41753906 0.03894531 4.10460937 0.05054687 4.8125 0.0625 C5.1425 0.7225 5.4725 1.3825 5.8125 2.0625 C-0.6225 2.5575 -0.6225 2.5575 -7.1875 3.0625 C-7.5175 2.4025 -7.8475 1.7425 -8.1875 1.0625 C-5.17259443 0.05753148 -3.14568308 -0.04085303 0 0 Z " fill="#EBBDF8" transform="translate(281.1875,89.9375)"/>
<path d="M0 0 C0.66 0 1.32 0 2 0 C1.54738642 1.43931117 1.08767021 2.87638999 0.625 4.3125 C0.36976563 5.11300781 0.11453125 5.91351563 -0.1484375 6.73828125 C-1 9 -1 9 -3 12 C-3.33 9.36 -3.66 6.72 -4 4 C-3.34 4 -2.68 4 -2 4 C-2 3.34 -2 2.68 -2 2 C-1.34 2 -0.68 2 0 2 C0 1.34 0 0.68 0 0 Z " fill="#828FDF" transform="translate(364,56)"/>
<path d="M0 0 C1.65 0.33 3.3 0.66 5 1 C5 1.99 5 2.98 5 4 C0.71 4 -3.58 4 -8 4 C-8 3.67 -8 3.34 -8 3 C-5.69 3 -3.38 3 -1 3 C-0.67 2.01 -0.34 1.02 0 0 Z " fill="#CFA6E2" transform="translate(162,34)"/>
<path d="M0 0 C0.33 0.66 0.66 1.32 1 2 C-4.28 2 -9.56 2 -15 2 C-15 1.67 -15 1.34 -15 1 C-9.56059334 -0.62227918 -5.66137303 -1.3864587 0 0 Z " fill="#B0A2E7" transform="translate(135,81)"/>
<path d="M0 0 C0.99 0.66 1.98 1.32 3 2 C2.1875 5.4375 2.1875 5.4375 1 9 C0.01 9.33 -0.98 9.66 -2 10 C-2.33 8.68 -2.66 7.36 -3 6 C-2.34 6 -1.68 6 -1 6 C-0.67 4.02 -0.34 2.04 0 0 Z " fill="#9A9DF2" transform="translate(381,41)"/>
<path d="M0 0 C0.99 0.33 1.98 0.66 3 1 C3.0825 1.94875 3.165 2.8975 3.25 3.875 C3.65074923 7.10461791 3.65074923 7.10461791 6.0625 8.375 C6.701875 8.58125 7.34125 8.7875 8 9 C7.34 9 6.68 9 6 9 C5.67 9.99 5.34 10.98 5 12 C4.16180842 10.37750059 3.3295884 8.75191503 2.5 7.125 C2.0359375 6.22007813 1.571875 5.31515625 1.09375 4.3828125 C0 2 0 2 0 0 Z " fill="#4575C9" transform="translate(319,38)"/>
<path d="M0 0 C1.55932272 3.11864545 0.65549131 5.66295335 0 9 C-0.66 9.66 -1.32 10.32 -2 11 C-2.33 10.67 -2.66 10.34 -3 10 C-2.62056512 5.90210331 -2.30694043 3.46041065 0 0 Z " fill="#A79FE8" transform="translate(249,79)"/>
<path d="M0 0 C1.79323253 0.28187936 3.58457126 0.5758281 5.375 0.875 C6.37273437 1.03742187 7.37046875 1.19984375 8.3984375 1.3671875 C11 2 11 2 13 4 C5.73846154 4.49230769 5.73846154 4.49230769 2 2 C1.34 1.34 0.68 0.68 0 0 Z " fill="#6D84CC" transform="translate(81,37)"/>
<path d="M0 0 C0.66 0 1.32 0 2 0 C2.16682272 4.92127034 2.24828052 8.50343896 0 13 C-0.66 13 -1.32 13 -2 13 C-1.855625 12.14535156 -1.71125 11.29070313 -1.5625 10.41015625 C-1.376875 9.30542969 -1.19125 8.20070313 -1 7.0625 C-0.814375 5.96035156 -0.62875 4.85820312 -0.4375 3.72265625 C0.02644224 1.29504142 0.02644224 1.29504142 0 0 Z " fill="#C6A8DF" transform="translate(415,20)"/>
<path d="M0 0 C1.32 0 2.64 0 4 0 C6.25 2.5 6.25 2.5 8 5 C5.625 5.625 5.625 5.625 3 6 C2.34 5.34 1.68 4.68 1 4 C1.33 3.34 1.66 2.68 2 2 C1.34 1.34 0.68 0.68 0 0 Z " fill="#CDA8F7" transform="translate(273,22)"/>
<path d="M0 0 C2.33944736 0.28730055 4.6739143 0.61936779 7 1 C5 3 5 3 2.1796875 3.1953125 C1.08914062 3.17210938 -0.00140625 3.14890625 -1.125 3.125 C-2.22070312 3.10695313 -3.31640625 3.08890625 -4.4453125 3.0703125 C-5.28835937 3.04710938 -6.13140625 3.02390625 -7 3 C-6.67 2.34 -6.34 1.68 -6 1 C-4.7934375 1.0309375 -4.7934375 1.0309375 -3.5625 1.0625 C-1.06645115 1.29633621 -1.06645115 1.29633621 0 0 Z " fill="#C6A9EC" transform="translate(143,80)"/>
<path d="M0 0 C0.99 0.33 1.98 0.66 3 1 C2.34 3.31 1.68 5.62 1 8 C-2 4.25 -2 4.25 -2 2 C-1.34 2 -0.68 2 0 2 C0 1.34 0 0.68 0 0 Z " fill="#4F7DD4" transform="translate(334,64)"/>
<path d="M0 0 C3 1 6 2 9 3 C9 3.66 9 4.32 9 5 C8.01 5.33 7.02 5.66 6 6 C5.67 5.01 5.34 4.02 5 3 C3.35 3 1.7 3 0 3 C0 2.01 0 1.02 0 0 Z " fill="#7286D8" transform="translate(224,42)"/>
<path d="M0 0 C1.98 0 3.96 0 6 0 C6.33 0.99 6.66 1.98 7 3 C4.69 3 2.38 3 0 3 C0 2.01 0 1.02 0 0 Z " fill="#B2A0D4" transform="translate(263,87)"/>
<path d="M0 0 C0.99 0 1.98 0 3 0 C2.90460938 0.62648438 2.80921875 1.25296875 2.7109375 1.8984375 C2.60007812 2.71570313 2.48921875 3.53296875 2.375 4.375 C2.25898438 5.18710938 2.14296875 5.99921875 2.0234375 6.8359375 C2.01570313 7.55007812 2.00796875 8.26421875 2 9 C2.66 9.66 3.32 10.32 4 11 C2.68 11 1.36 11 0 11 C0 7.37 0 3.74 0 0 Z " fill="#B7A1E5" transform="translate(258,82)"/>
<path d="M0 0 C2.5132982 2.5132982 2 3.62447307 2 7 C0.02 6.34 -1.96 5.68 -4 5 C-2 2 -2 2 0 0 Z " fill="#C7A5ED" transform="translate(149,60)"/>
<path d="M0 0 C0.33 0.99 0.66 1.98 1 3 C0.01 4.485 0.01 4.485 -1 6 C-1.45139459 8.0492094 -1.45139459 8.0492094 -1.625 10.1875 C-1.74875 11.445625 -1.8725 12.70375 -2 14 C-2.33 14 -2.66 14 -3 14 C-3.08153933 12.41753293 -3.13943557 10.83383727 -3.1875 9.25 C-3.22230469 8.36828125 -3.25710937 7.4865625 -3.29296875 6.578125 C-2.94923684 3.55328417 -1.99772541 2.24416398 0 0 Z " fill="#9189D5" transform="translate(251,32)"/>
<path d="M0 0 C2.33294775 -0.04241723 4.66702567 -0.04092937 7 0 C8 1 8 1 8.0625 3.5625 C8.041875 4.366875 8.02125 5.17125 8 6 C7.67 4.68 7.34 3.36 7 2 C2.52116304 2.44703986 2.52116304 2.44703986 -1 5 C-0.67 3.35 -0.34 1.7 0 0 Z " fill="#4E6CBB" transform="translate(183,23)"/>
<path d="M0 0 C0.33 0 0.66 0 1 0 C1 1.98 1 3.96 1 6 C0.34 6 -0.32 6 -1 6 C-1.33 7.32 -1.66 8.64 -2 10 C-2.66 9.67 -3.32 9.34 -4 9 C-2.68 6.03 -1.36 3.06 0 0 Z " fill="#7687D5" transform="translate(357,48)"/>
<path d="M0 0 C3.96 0 7.92 0 12 0 C6.54545455 2.72727273 6.54545455 2.72727273 3 3 C2.01 2.01 1.02 1.02 0 0 Z " fill="#5776BB" transform="translate(73,17)"/>
<path d="M0 0 C3.93846154 4.30769231 3.93846154 4.30769231 4.25 7.8125 C4.1675 8.534375 4.085 9.25625 4 10 C3.34 10 2.68 10 2 10 C0.68373308 6.38026598 0 3.90432869 0 0 Z " fill="#5067D1" transform="translate(335,72)"/>
<path d="M0 0 C2.31 1.98 4.62 3.96 7 6 C4.37886292 6 2.49064888 5.68707555 0 5 C0 3.35 0 1.7 0 0 Z " fill="#858CD4" transform="translate(365,22)"/>
<path d="M0 0 C2 3 2 3 3 6 C2.0625 9.1875 2.0625 9.1875 1 12 C0.67 12 0.34 12 0 12 C0 8.04 0 4.08 0 0 Z " fill="#6C89E3" transform="translate(221,79)"/>
<path d="M0 0 C0.99 0 1.98 0 3 0 C2.67 3.63 2.34 7.26 2 11 C1.67 11 1.34 11 1 11 C0.67 7.37 0.34 3.74 0 0 Z " fill="#B698E4" transform="translate(253,75)"/>
<path d="M0 0 C0.99 0.33 1.98 0.66 3 1 C3 2.32 3 3.64 3 5 C1.35 4.67 -0.3 4.34 -2 4 C-1.34 2.68 -0.68 1.36 0 0 Z " fill="#7993EE" transform="translate(234,52)"/>
<path d="M0 0 C0.33 0 0.66 0 1 0 C1.33 1.98 1.66 3.96 2 6 C4.97 6.495 4.97 6.495 8 7 C8 7.33 8 7.66 8 8 C5.6739143 8.38063221 3.33944736 8.71269945 1 9 C0 8 0 8 -0.09765625 6.15234375 C-0.06510417 4.1015625 -0.03255208 2.05078125 0 0 Z " fill="#476FC7" transform="translate(189,31)"/>
<path d="M0 0 C2.4375 0.375 2.4375 0.375 5 1 C5.33 1.66 5.66 2.32 6 3 C5.0625 5.625 5.0625 5.625 4 8 C3.34 7.67 2.68 7.34 2 7 C2.04125 6.21625 2.0825 5.4325 2.125 4.625 C2.28728734 1.83883881 2.28728734 1.83883881 0 0 Z " fill="#C9A4E1" transform="translate(152,28)"/>
</svg>
