<?xml version="1.0" encoding="UTF-8"?>
<svg version="1.1" xmlns="http://www.w3.org/2000/svg" width="500" height="500">
<path d="M0 0 C165 0 330 0 500 0 C500 165 500 330 500 500 C335 500 170 500 0 500 C0 335 0 170 0 0 Z " fill="#FEFEFE" transform="translate(0,0)"/>
<path d="M0 0 C0.90588364 -0.00817749 1.81176727 -0.01635498 2.74510193 -0.02478027 C5.75234309 -0.04965477 8.75953692 -0.06615718 11.7668457 -0.08056641 C12.79333536 -0.08589008 13.81982502 -0.09121376 14.87742043 -0.09669876 C20.31247842 -0.12344159 25.74751338 -0.1428113 31.18261719 -0.15722656 C36.79388101 -0.17386064 42.40455594 -0.21862511 48.01559734 -0.26959801 C52.33165654 -0.30327712 56.64757623 -0.31480487 60.96375465 -0.32045364 C63.03179223 -0.3271662 65.09982062 -0.34238831 67.16773033 -0.36634445 C70.06673273 -0.39800729 72.96415092 -0.39803072 75.86328125 -0.390625 C76.71394165 -0.40703033 77.56460205 -0.42343567 78.44104004 -0.44033813 C84.58339766 -0.37628214 87.60238795 1.1683257 92.25512695 5.19287109 C93.55981445 7.22021484 93.55981445 7.22021484 94.13012695 9.13037109 C94.34024414 9.80970703 94.55036133 10.48904297 94.7668457 11.18896484 C95.41346155 13.84267629 95.91635427 16.48268959 96.25512695 19.19287109 C92.62512695 19.19287109 88.99512695 19.19287109 85.25512695 19.19287109 C85.27575195 18.05849609 85.29637695 16.92412109 85.31762695 15.75537109 C85.67090172 12.37711436 85.67090172 12.37711436 84.25512695 11.19287109 C81.54674609 11.09772518 78.86394182 11.06732177 76.15527344 11.0793457 C74.88221344 11.07912666 74.88221344 11.07912666 73.58343506 11.0789032 C70.76433804 11.07960261 67.94530624 11.08739632 65.1262207 11.09521484 C63.17708879 11.09707892 61.2279564 11.09850287 59.27882385 11.09950256 C54.13805864 11.10332854 48.99732148 11.1131595 43.85656738 11.12420654 C38.61507548 11.13441895 33.37357906 11.13899982 28.13208008 11.14404297 C17.83975001 11.1547817 7.54744081 11.17185908 -2.74487305 11.19287109 C-2.09411228 14.21724198 -2.09411228 14.21724198 -0.12768555 15.18505859 C12.42231058 20.0921505 25.66920138 22.90238577 38.81762695 25.69287109 C48.0338532 27.64975153 57.1029208 29.89666275 66.13647461 32.57226562 C68.29932496 33.20581778 70.46948081 33.80769151 72.6418457 34.40771484 C81.37255579 36.88363229 88.80651096 39.34325486 94.25512695 47.00537109 C95.56470585 51.17965382 95.98106895 54.86115126 95.25512695 59.19287109 C93.57984396 62.0647848 92.57280123 63.76355575 89.36507988 64.8086729 C87.27787005 65.18872984 85.36569595 65.32675345 83.24588013 65.34004211 C82.45812195 65.34719742 81.67036377 65.35435272 80.85873413 65.36172485 C80.00357208 65.36441376 79.14841003 65.36710266 78.26733398 65.36987305 C76.90566101 65.37972984 76.90566101 65.37972984 75.51647949 65.38978577 C72.51529861 65.40948142 69.51416762 65.42117152 66.51293945 65.43115234 C65.48703579 65.43522787 64.46113213 65.4393034 63.40414047 65.44350243 C57.97670443 65.46434473 52.54929355 65.47865583 47.12182617 65.48803711 C41.5173391 65.49911277 35.91324782 65.53353145 30.30890083 65.57320881 C25.99717469 65.59934878 21.68554338 65.6077265 17.37374496 65.61131859 C15.30769037 65.61618933 13.24164015 65.62781716 11.17566299 65.64635658 C8.28402478 65.6706976 5.39341823 65.66979241 2.50170898 65.6628418 C1.6505954 65.67565186 0.79948181 65.68846191 -0.0774231 65.70166016 C-5.46284558 65.65452694 -8.42962409 64.70050773 -12.74487305 61.19287109 C-13.34041992 60.71849609 -13.9359668 60.24412109 -14.54956055 59.75537109 C-16.16617432 57.64215047 -16.44231873 55.8048393 -16.86987305 53.19287109 C-17.34590947 50.38676164 -17.84168784 47.90242673 -18.74487305 45.19287109 C-14.12487305 45.19287109 -9.50487305 45.19287109 -4.74487305 45.19287109 C-4.41487305 45.85287109 -4.08487305 46.51287109 -3.74487305 47.19287109 C-4.73487305 47.68787109 -4.73487305 47.68787109 -5.74487305 48.19287109 C-5.36583097 51.48363106 -5.36583097 51.48363106 -3.74487305 54.19287109 C-1.006821 54.31803746 1.70724415 54.37894783 4.44677734 54.39819336 C5.30523758 54.40809296 6.16369781 54.41799255 7.048172 54.42819214 C9.89968054 54.45990418 12.75120577 54.48460273 15.6027832 54.50927734 C17.57434026 54.52983851 19.54589283 54.55083474 21.5174408 54.57225037 C26.7173398 54.62755763 31.91727916 54.6769286 37.11724854 54.72509766 C42.41910409 54.77524966 47.72090075 54.83096854 53.02270508 54.88623047 C63.43346211 54.99391782 73.84427018 55.09533914 84.25512695 55.19287109 C82.80710299 51.27113954 82.07793976 49.55118288 78.25512695 47.69287109 C65.85619017 42.04897384 52.22905419 39.71110022 38.94311523 37.13818359 C-6.38176612 28.27281576 -6.38176612 28.27281576 -14.74487305 19.19287109 C-16.19136392 14.85339846 -16.40956212 10.72287166 -15.74487305 6.19287109 C-11.03109085 0.114573 -7.26720684 0.03596491 0 0 Z " fill="#8B99EF" transform="translate(69.744873046875,185.80712890625)"/>
<path d="M0 0 C6.6 0 13.2 0 20 0 C20 0.66 20 1.32 20 2 C19.01 2.495 19.01 2.495 18 3 C19.62185408 8.28286898 21.81117869 13.21235309 24.09765625 18.23046875 C24.49198349 19.10270584 24.88631073 19.97494293 25.29258728 20.87361145 C26.54644914 23.64617436 27.80420747 26.41694543 29.0625 29.1875 C30.32384512 31.96899548 31.58433272 34.75087153 32.84312439 37.53352356 C33.62501456 39.26153678 34.40845989 40.98884734 35.19361877 42.71537781 C35.5474614 43.49661514 35.90130402 44.27785248 36.26586914 45.08276367 C36.57738419 45.76860031 36.88889923 46.45443695 37.20985413 47.16105652 C38 49 38 49 39 52 C39.99 52.495 39.99 52.495 41 53 C41.37769531 51.76636719 41.75539063 50.53273437 42.14453125 49.26171875 C44.52815127 42.10245086 47.94874484 35.39744916 51.23632812 28.61914062 C51.71908203 27.59626953 52.20183594 26.57339844 52.69921875 25.51953125 C53.14096436 24.60276611 53.58270996 23.68600098 54.0378418 22.74145508 C55.13227322 19.62311699 55.30909449 17.28237115 55 14 C50.23782635 8.51569346 43.56525121 4.91788942 37 2 C37 1.34 37 0.68 37 0 C44.26 0 51.52 0 59 0 C59 0.66 59 1.32 59 2 C58.34 2.33 57.68 2.66 57 3 C57.52843506 3.50225098 58.05687012 4.00450195 58.60131836 4.52197266 C72.06773998 17.4082616 82.342667 29.10462004 89.79589844 46.29199219 C91.14439771 49.79728577 91.14439771 49.79728577 94 52 C94.21716675 51.11997314 94.21716675 51.11997314 94.4387207 50.22216797 C95.99953456 44.19470369 97.86583753 38.3191992 99.91796875 32.4453125 C100.31328293 31.31267975 100.31328293 31.31267975 100.71658325 30.15716553 C101.81792149 27.01158371 102.92415029 23.86779286 104.0378418 20.7265625 C104.85884698 18.40596864 105.67024095 16.08218724 106.48046875 13.7578125 C106.73354294 13.05254425 106.98661713 12.347276 107.24736023 11.62063599 C108.58822045 7.75422401 109 5.19637628 109 1 C114.28 1 119.56 1 125 1 C123.3974599 5.00635024 121.67058338 8.81386671 119.80078125 12.6953125 C116.10711034 20.50352674 113.00370101 28.48603203 110.02758789 36.59082031 C109.1792628 38.89739675 108.31779494 41.19877287 107.45507812 43.5 C104.82177924 50.58400522 102.33475312 57.53558446 101 65 C95.06 65 89.12 65 83 65 C83 62.36 83 59.72 83 57 C82.13053006 54.28814841 81.25293893 51.92827961 80.0625 49.375 C79.75473633 48.69493896 79.44697266 48.01487793 79.12988281 47.31420898 C76.81652237 42.36707966 74.17095782 37.67466532 71.25 33.0625 C70.87367432 32.46550293 70.49734863 31.86850586 70.10961914 31.25341797 C67.79159915 27.73996778 67.79159915 27.73996778 64 26 C63.59793335 27.27387573 63.59793335 27.27387573 63.18774414 28.57348633 C61.96690529 32.09547466 60.53477883 35.42952855 58.99609375 38.82421875 C58.71274673 39.45229935 58.42939972 40.08037994 58.13746643 40.72749329 C57.24023253 42.71542149 56.33914337 44.70156835 55.4375 46.6875 C54.53280681 48.68437134 53.6289745 50.68162125 52.7268219 52.67964172 C51.91148542 54.48479183 51.09338754 56.28869393 50.27514648 58.0925293 C48.95564105 60.98068574 48.95564105 60.98068574 48 64 C48.99 64.495 48.99 64.495 50 65 C43.4 65 36.8 65 30 65 C29.67 62.36 29.34 59.72 29 57 C27.80375197 53.60558818 27.80375197 53.60558818 26.19140625 50.32421875 C25.90901093 49.72051956 25.6266156 49.11682037 25.33566284 48.49482727 C24.423033 46.55322759 23.49375233 44.620228 22.5625 42.6875 C21.92479864 41.34589933 21.28751314 40.00410092 20.65063477 38.66210938 C17.02375338 31.05340977 13.31885335 23.48248378 9.4375 16 C9.05730713 15.26096436 8.67711426 14.52192871 8.28540039 13.76049805 C6.51407048 10.42782306 4.68464693 7.49400985 2.22265625 4.625 C0 2 0 2 0 0 Z " fill="#8A99EF" transform="translate(307,186)"/>
<path d="M0 0 C0.77279297 -0.00773438 1.54558594 -0.01546875 2.34179688 -0.0234375 C10.50950747 0.00417944 19.56642132 1.92044275 25.64453125 7.7734375 C28.40710182 11.03756987 29.96537576 13.23990789 30.375 17.5 C29.94073216 22.71121404 28.09813076 25.32465172 24.33203125 28.88671875 C15.52489032 36.1468968 5.05269854 36.041323 -5.92382812 35.4453125 C-13.79749934 34.68161985 -20.7351711 31.19773722 -25.9375 25.25 C-28.26968251 21.55737769 -28.1648099 18.35990085 -27.46484375 14.16796875 C-25.97117778 8.73545031 -21.64893457 6.16985913 -17.1328125 3.36328125 C-11.35961368 0.43559146 -6.34629655 -0.06319963 0 0 Z " fill="#FEFDFE" transform="translate(275.9375,191.75)"/>
<path d="M0 0 C0.77279297 -0.00773438 1.54558594 -0.01546875 2.34179688 -0.0234375 C10.50950747 0.00417944 19.56642132 1.92044275 25.64453125 7.7734375 C28.40710182 11.03756987 29.96537576 13.23990789 30.375 17.5 C29.94073216 22.71121404 28.09813076 25.32465172 24.33203125 28.88671875 C15.52489032 36.1468968 5.05269854 36.041323 -5.92382812 35.4453125 C-13.79749934 34.68161985 -20.7351711 31.19773722 -25.9375 25.25 C-28.26968251 21.55737769 -28.1648099 18.35990085 -27.46484375 14.16796875 C-25.97117778 8.73545031 -21.64893457 6.16985913 -17.1328125 3.36328125 C-11.35961368 0.43559146 -6.34629655 -0.06319963 0 0 Z M-18.9375 11.6875 C-21.10097773 14.45945584 -22.02326291 15.73372086 -21.9375 19.25 C-19.26636322 24.9406827 -15.52618092 27.01223249 -9.9375 29.25 C-2.28352625 31.80132458 8.75994524 31.29798711 16.2265625 28.22265625 C20.72662564 25.83858024 23.51038828 23.84821814 25.25 18.8125 C25.04850229 14.98404343 24.2466673 13.28787944 21.58203125 10.53515625 C17.24201507 6.86455131 12.61922864 5.5791442 7.0625 5.25 C5.99257813 5.18554688 4.92265625 5.12109375 3.8203125 5.0546875 C-5.4711093 4.75496422 -11.68336047 5.79351164 -18.9375 11.6875 Z " fill="#C5ABF7" transform="translate(275.9375,191.75)"/>
<path d="M0 0 C2.64 0 5.28 0 8 0 C7.67 4.62 7.34 9.24 7 14 C8.14855469 13.97679687 9.29710937 13.95359375 10.48046875 13.9296875 C24.62333117 13.72799586 38.80996907 13.87331271 51 22 C50.67 14.74 50.34 7.48 50 0 C52.31 0 54.62 0 57 0 C56.99476318 0.95890137 56.98952637 1.91780273 56.98413086 2.90576172 C56.96605321 6.45783559 56.95455785 10.00990537 56.94506836 13.56201172 C56.94003448 15.10043013 56.93320692 16.63884375 56.92456055 18.17724609 C56.91245361 20.38640526 56.90676231 22.59550126 56.90234375 24.8046875 C56.89718246 25.49432587 56.89202118 26.18396423 56.88670349 26.89450073 C56.83681836 30.57059655 56.83681836 30.57059655 58 34 C55.36 34 52.72 34 50 34 C50.04125 33.113125 50.0825 32.22625 50.125 31.3125 C48.81254012 27.4480348 48.16216355 27.11241966 44.6875 25.25 C32.93680588 20.10286497 20.55978951 20.76351861 8 21 C8 25.29 8 29.58 8 34 C5.36 34 2.72 34 0 34 C0 22.78 0 11.56 0 0 Z " fill="#598BE8" transform="translate(182,193)"/>
<path d="M0 0 C9.24 0 18.48 0 28 0 C28 0.99 28 1.98 28 3 C19.75 3 11.5 3 3 3 C3 4.32 3 5.64 3 7 C8.28 7 13.56 7 19 7 C19 7.99 19 8.98 19 10 C13.72 10 8.44 10 3 10 C3 11.32 3 12.64 3 14 C10.92 14 18.84 14 27 14 C27 14.66 27 15.32 27 16 C18.09 16 9.18 16 0 16 C0 10.72 0 5.44 0 0 Z " fill="#D9B4F9" transform="translate(259,243)"/>
<path d="M0 0 C7.91886179 1.3198103 13.6526675 4.95518935 19 11 C19.2475 10.113125 19.495 9.22625 19.75 8.3125 C21.05664713 4.84988511 22.42976816 2.64811765 25 0 C25.99 0 26.98 0 28 0 C28 5.28 28 10.56 28 16 C27.01 16 26.02 16 25 16 C24.67 13.03 24.34 10.06 24 7 C22.35 9.97 20.7 12.94 19 16 C15.19631778 14.09815889 14.11353861 13.17785213 11.625 10 C8.72036138 6.53701832 6.56204626 4.89015537 2 4 C2.33 7.96 2.66 11.92 3 16 C1.68 15.67 0.36 15.34 -1 15 C-0.67 10.05 -0.34 5.1 0 0 Z " fill="#8D9BEF" transform="translate(227,243)"/>
<path d="M0 0 C9.24 0 18.48 0 28 0 C28 0.66 28 1.32 28 2 C25.36 2 22.72 2 20 2 C20 6.62 20 11.24 20 16 C19.01 16 18.02 16 17 16 C17 11.71 17 7.42 17 3 C11.39 3 5.78 3 0 3 C0 2.01 0 1.02 0 0 Z " fill="#5892E8" transform="translate(189,243)"/>
<path d="M0 0 C0.99 0 1.98 0 3 0 C3 5.28 3 10.56 3 16 C2.01 16 1.02 16 0 16 C-0.33 13.03 -0.66 10.06 -1 7 C-1.680625 7.99 -1.680625 7.99 -2.375 9 C-2.91125 9.66 -3.4475 10.32 -4 11 C-4.66 11 -5.32 11 -6 11 C-4.75037104 6.5221629 -3.25851406 3.35725691 0 0 Z " fill="#B6ABF5" transform="translate(252,243)"/>
<path d="M0 0 C0.99 0 1.98 0 3 0 C3 5.28 3 10.56 3 16 C2.01 16 1.02 16 0 16 C0 10.72 0 5.44 0 0 Z " fill="#7698EC" transform="translate(220,243)"/>
</svg>
